<?xml version="1.0" encoding="UTF-8" standalone="no"?>
<svg
   xmlns:dc="http://purl.org/dc/elements/1.1/"
   xmlns:cc="http://creativecommons.org/ns#"
   xmlns:rdf="http://www.w3.org/1999/02/22-rdf-syntax-ns#"
   xmlns:svg="http://www.w3.org/2000/svg"
   xmlns="http://www.w3.org/2000/svg"
   xmlns:sodipodi="http://sodipodi.sourceforge.net/DTD/sodipodi-0.dtd"
   xmlns:inkscape="http://www.inkscape.org/namespaces/inkscape"
   width="158.11499mm"
   height="177.45602mm"
   viewBox="0 0 158.11499 177.45602"
   version="1.1"
   id="svg8"
   inkscape:version="1.0 (4035a4fb49, 2020-05-01)"
   sodipodi:docname="france.svg">
  <defs
     id="defs2" />
  <sodipodi:namedview
     id="base"
     pagecolor="#ffffff"
     bordercolor="#666666"
     borderopacity="1.0"
     inkscape:pageopacity="0.0"
     inkscape:pageshadow="2"
     inkscape:zoom="0.7"
     inkscape:cx="195.16824"
     inkscape:cy="362.07122"
     inkscape:document-units="mm"
     inkscape:current-layer="g162"
     inkscape:document-rotation="0"
     showgrid="false"
     inkscape:window-width="1280"
     inkscape:window-height="962"
     inkscape:window-x="-8"
     inkscape:window-y="-8"
     inkscape:window-maximized="1" />
  <metadata
     id="metadata5">
    <rdf:RDF>
      <cc:Work
         rdf:about="">
        <dc:format>image/svg+xml</dc:format>
        <dc:type
           rdf:resource="http://purl.org/dc/dcmitype/StillImage" />
        <dc:title />
      </cc:Work>
    </rdf:RDF>
  </metadata>
  <g
     inkscape:label="Calque 1"
     inkscape:groupmode="layer"
     id="layer1"
     transform="translate(-22.812652,-13.370066)">
    <g
       style="overflow:visible"
       id="g182"
       transform="matrix(0.26458333,0,0,0.26458333,61.549645,-47.150635)">
      <g
         id="g162"
         transform="translate(-146.40754,228.73966)">
        <path
           fill="#fbfaf9"
           d="m 503.3,105.4 -5,3.9 -3.1,0.1 -5.8,-2.6 -4,-3.3 h -7.7 l -1.4,3.1 -6.3,0.8 -3.9,-8.1 -3.5,0.3 v -3.5 l -6.8,-1.7 -7.6,-6.7 -6.601,0.2 1,-7.3 -3.199,-6.4 v -4.6 l 3,-5.8 -3,-1.7 -4.7,4.8 -1.9,7.2 -9.8,4.4 -6,-1.9 -3.2,0.7 0.9,6.4 -1.5,3.9 1.5,3.5 -5.601,8.1 -3.1,0.3 0.3,16.1 -1,3.1 -6.1,-2.1 -8.9,4.5 -1.399,3 3.6,9.1 -6.1,2.5 1.8,2.7 -1,3.1 2.8,1.4 -8.5,11.4 -0.6,2.3 -2.801,2.5 3.9,9.3 2.9,1.9 -3.4,5.6 -3.3,0.8 0.5,9.6 4.1,1.7 5,6.2 2.8,9.3 2.2,-2.5 4.101,4.7 5.6,12.3 14.1,-1.8 3.301,1.5 2.5,-2.2 6.899,-1 5.3,-4.4 4.301,0.6 v -0.1 l 3.899,0.8 0.601,3.1 3,1.1 -0.4,3.2 3.3,0.3 2,2.6 1.101,3.4 -3.101,2.7 2.601,5.4 10.3,2.3 3.399,1.7 v 3.2 l 5.4,-2.1 1.3,-2.8 7.4,-4.4 2.5,2 3.399,-1.1 0.4,-9.4 2.3,-2.7 3.2,0.4 2.6,-3.6 -0.3,-1.6 9.101,-6.5 7.899,4.8 6.3,-1.8 5.5,4.1 5.801,-2.5 9.399,7.4 1.101,-0.7 8.5,5.6 0.5,10.2 3.199,-0.2 2.301,5.9 3,0.6 -0.9,3.4 h 8.5 l 3,-1.1 0.6,-3.4 3.2,-0.2 0.2,-3.5 2.5,-2.2 -3.2,-8.7 3,-17.3 -2.2,-11.6 6.7,-15.7 1.7,-17.6 11.7,-15.3 4.399,-12 -9.5,-3.4 -16.6,-0.6 -9.4,-8.4 -7,4.7 -7.8,-1.4 -2.899,1.4 -2.5,-4.4 -3.4,-1.6 -3.1,1.8 -0.301,3.3 -3.1,-0.8 -9,-10.3 -1.9,-6.5 -3.399,-2.3 z"
           id="path2" />
        <path
           fill="#fbfaf9"
           d="m 335.6,1 -18.3,4.6 -15.4,4.8 -6.5,5.6 v 20.2 l 3.3,3.9 -3.1,-1.9 -0.8,6.6 0.5,4.3 2.6,1.8 -4.2,1.6 -0.4,3.4 3.4,6.2 -3.1,-1.7 -7.3,10 v 0 l 14.1,12 3.8,9.5 -3.4,5.2 1.6,9.9 -1.6,9 4,9.4 -4.5,2.9 1.8,3.6 6.3,1.3 7.1,-2.1 10.3,2.5 2.5,-1.8 12.2,7.1 7.7,1.2 2.3,-2.5 2.8,1.8 9.101,-3.3 3,0.8 1.899,2.8 -0.7,3.2 4.4,4.7 10.5,6.7 8.5,-11.4 -2.8,-1.4 1,-3.1 -1.8,-2.7 6.1,-2.5 -3.6,-9.1 1.399,-3 8.9,-4.5 6.1,2.1 1,-3.1 -0.299,-16.1 3.1,-0.3 5.601,-8.1 -1.5,-3.5 1.5,-3.9 -0.9,-6.4 H 413.4 l -4.1,-1.3 3.7,-7.1 -3.4,-5.9 2.301,-7.3 -3.101,0.7 -4.6,-5.5 -6.8,1.2 -6.101,-1.4 -2.5,2.2 -2.399,-10.2 -6.101,-1.5 -1.3,-3 -3.2,2.4 -3.6,-1.2 -3.4,-9.5 0.5,-3.4 -4.399,-4.9 -6.601,0.5 -6.2,4.3 -3.3,-1.4 -3.2,-5.9 H 341.9 l -1.5,-3 1.199,-6.4 -2.899,-6.8 z"
           id="path4" />
        <path
           fill="#fbfaf9"
           d="m 328.3,131.8 -2.5,1.8 -10.3,-2.5 -7.1,2.1 -6.3,-1.3 -1.8,-3.6 -4.4,10.6 h -4.3 l -2.7,2.8 2,6.6 4.2,7.4 0.5,12.2 6.9,6.1 1.4,6.3 2.5,2.4 3.5,-0.7 3.199,11.9 v 0 l 7.801,-0.9 2.1,-3.1 1.7,2.9 3.1,-1.9 4.2,0.6 0.8,3.5 4.7,4.8 -0.6,3 -3,1.7 10.3,0.8 12.6,-3 4.4,-6 0.2,-6.5 17.3,-3.5 -0.5,-9.6 3.3,-0.8 3.4,-5.6 -2.9,-1.9 -3.9,-9.3 2.801,-2.5 0.6,-2.3 -10.5,-6.7 -4.4,-4.7 0.7,-3.2 -1.899,-2.8 -3,-0.8 -9.101,3.3 -2.8,-1.8 -2.3,2.5 -7.7,-1.2 z"
           id="path6" />
        <path
           fill="#fbfaf9"
           d="m 422.4,215.5 -2.5,2.2 -3.301,-1.5 -14.1,1.8 -5.6,-12.3 -4.099,-4.7 -2.2,2.5 -2.8,-9.3 -5,-6.2 -4.1,-1.7 -17.3,3.5 -0.2,6.5 -4.4,6 7.5,8.5 0.5,6.4 -5.2,5.5 1.2,3.3 -1.8,2.7 -5.9,3.7 3.4,3.2 2.5,7.8 -3.2,0.7 -1.7,2.7 2.2,7.3 -1.899,6.5 3.1,2.4 3.5,8.5 0.3,6.6 2.5,2.2 -0.3,6.6 -1.5,10 6.5,7.1 7.2,0.2 3.2,-1.9 4.8,4.1 6.7,-6.7 7.6,15.1 8.8,3.3 1.8,2.7 -0.5,6.2 -4.199,5.2 v 3.4 l 5.8,3.6 9,-1.7 2.3,2.4 6.4,-4.3 0.399,-3.4 2.601,-2.1 2.399,2 2.601,-1.9 2.8,1.8 1.8,-2.6 6.4,8.6 6.6,-23.5 6.6,1.7 6,-1.4 5.4,3.6 h 0.1 l 4.801,8.7 h 3.3 v 3.4 l 3.3,-0.2 4.5,-4.8 3.8,1.8 0.4,3 4.399,-0.1 6.101,-3.7 5.3,-7.3 -0.2,-0.1 4,-13.6 13.2,-12.1 -0.9,-10.9 9.601,-6.7 13.2,-16.2 -0.301,-3.2 2.601,-2.4 -4.8,-4 1.1,-3.3 4.2,-4.8 4.399,-0.6 0.301,0.1 -2.301,-5.9 -3.199,0.2 -0.5,-10.2 -8.5,-5.6 -1.101,0.7 -9.399,-7.4 -5.801,2.5 -5.5,-4.1 -6.3,1.8 -7.899,-4.8 -9.101,6.5 0.3,1.6 -2.6,3.6 -3.2,-0.4 -2.3,2.7 -0.4,9.4 -3.399,1.1 -2.5,-2 -7.4,4.4 -1.3,2.8 v 0 l 3.1,-1.9 -3.1,1.9 v 0 l -5.4,2.1 v -3.2 l -3.399,-1.7 -10.3,-2.3 -2.601,-5.4 3.101,-2.7 -1.101,-3.4 -2,-2.6 -3.3,-0.3 0.4,-3.2 -3,-1.1 -0.601,-3.1 -3.899,-0.8 v 0.1 l -4.301,-0.6 -5.3,4.4 z"
           id="path8" />
        <path
           fill="#fbfaf9"
           d="m 344.2,205.3 -10.3,-0.8 3,-1.7 0.6,-3 -4.7,-4.8 -0.8,-3.5 -4.2,-0.6 -3.1,1.9 -1.7,-2.9 -2.1,3.1 -7.801,0.9 v 0 L 309.9,182 l -3.5,0.7 -2.5,-2.4 -1.4,-6.3 -6.9,-6.1 -0.5,-12.2 -4.2,-7.4 -6.7,7.8 0.3,3.1 -6.7,1.5 -3.2,-1.8 -6,3.6 -6.7,1.2 -2.7,2.9 0.2,3.6 5.3,4.9 -0.2,5.1 0.6,5.1 -8.5,5.8 1.2,8.4 h 0.1 l 2.3,4.3 -0.5,2 v 0.1 l -2.3,2.3 2,2.5 0.4,6.2 -7,12 -3.6,1.1 -0.7,4 -8.6,5 -3.1,-0.3 0.5,3.7 -6.8,-2.9 -0.9,2.7 -1.9,10.4 -6.4,17.2 v 0.1 l 6.1,3.6 0.3,3.6 3.3,-0.3 1.5,6.8 3.1,1.6 11.3,-0.5 -1.7,-3.2 6.1,3.3 0.2,3.5 10.4,14.7 -1,6.5 5.3,4.9 h 3.2 l 3,6.1 2.8,1.4 -1.8,3.2 3,1.2 6.5,-1.2 1.9,2.7 3.1,-3.2 12.9,-1.2 2.1,-2.8 14.9,3 3.101,-0.9 5.5,0.2 v 0 l 3.899,-6.7 9.8,-1.1 1.9,-2.7 -1.9,-6 2.5,-2.1 9.5,-3.2 5.4,-4.2 h 4.5 l 1.5,-10 0.3,-6.6 -2.5,-2.2 -0.3,-6.6 -3.5,-8.5 -3.1,-2.4 1.899,-6.5 -2.2,-7.3 1.7,-2.7 3.2,-0.7 -2.5,-7.8 -3.4,-3.2 5.9,-3.7 1.8,-2.7 -1.2,-3.3 5.2,-5.5 -0.5,-6.4 -7.5,-8.5 z"
           id="path10" />
        <path
           fill="#fbfaf9"
           d="m 342.6,304.3 -2.5,2.1 1.9,6 -1.9,2.7 -9.8,1.1 -3.899,6.7 v 0 l 1.199,4.4 c 2.801,1.8 5.601,3.6 8.301,5.5 l 4.1,9.3 -0.6,4.6 2.6,7.6 -10.5,9.7 5,6.2 1.4,6.2 -2,2.8 2.199,15.6 -7,-2.3 -0.699,3.9 -8.5,10.7 2,2.5 -2.601,2.2 -0.3,3.801 -3.5,1.3 1.7,3.7 -3.7,2.199 1.1,6.101 4.301,6.8 -2,6.4 3.699,5.6 5.801,-3.6 7.1,1.8 4.3,-5.5 3.4,-10.101 5.3,-4.8 5.9,4.5 1.399,4.7 2.7,1.8 -0.6,3.4 2.899,5.7 7.8,-17.801 2,2.5 8.7,-7.5 2.5,1.9 1.7,6.4 7.2,1.399 0.2,-3.2 3.199,0.301 10.101,8.6 2.3,10.2 7.9,16 8.699,5.6 7.9,-4.899 0.2,3.5 2.8,-2.5 h 3.1 l 6.801,3.8 -0.099,-4.1 6.5,0.801 4,4.8 9.8,-4.4 2.7,1.601 2.8,-2.5 0.5,6.5 10.5,0.899 0.101,3.2 5.899,2.601 4.801,-5.4 2.6,-0.1 1.1,-0.2 0.2,-5.301 -11.2,-6.399 -1.699,-3 3.699,-5.7 4.601,1.6 2.8,-2.8 -3.3,-2.5 2.8,-7.6 6.4,-0.4 0.399,-3.8 1.101,-3.4 6.199,-1.399 1,-3.2 14.2,-4.3 3.4,1.3 0.399,-6.6 -4.899,-3.5 -1.9,-4.7 1.7,-4.3 8.7,3.899 2.3,-2.2 6.8,-1.3 v 0 -0.1 l 21.7,-9.3 2.2,-4.101 -1.3,-2.899 3.1,-5.801 -8.2,-5.8 -2.5,-6.1 0.8,-3.5 -6.3,-2.601 -3.2,-3 -0.5,-3.6 0.101,-0.1 9.298,-9.1 1.1,-3.5 -3.8,-5.1 -8.7,-8.3 2.5,-6.9 -4.1,-6.1 0.6,-3.2 -3.8,-0.8 -9.5,0.7 -5.7,4.7 -3.8,-1.6 -3.2,6.5 2.7,3.4 -7.8,6.1 -7.9,1 v -0.1 l 0.601,-5.6 6.5,-4 1.2,-7.8 -3.9,-2.2 -5.3,7.3 -6.101,3.7 -4.399,0.1 -0.4,-3 -3.8,-1.8 -4.5,4.8 -3.3,0.2 v -3.4 h -3.3 L 471.1,318.4 H 471 l -5.4,-3.6 -6,1.4 -6.6,-1.7 -6.6,23.5 -6.4,-8.6 -1.8,2.6 -2.8,-1.8 -2.601,1.9 -2.399,-2 -2.601,2.1 -0.399,3.4 -6.4,4.3 -2.3,-2.4 -9,1.7 -5.8,-3.6 v -3.4 l 4.199,-5.2 0.5,-6.2 -1.8,-2.7 -8.8,-3.3 -7.6,-15.1 -6.7,6.7 -4.8,-4.1 -3.2,1.9 -7.2,-0.2 -6.5,-7.1 h -4.5 l -5.4,4.2 z m 122,157.2 -2.699,4 -4.5,1.4 -2.2,-2.5 1.399,-3.4 3,-2.5 z"
           id="path12" />
        <path
           fill="#fbfaf9"
           d="m 326.4,322.9 -5.5,-0.2 -3.101,0.9 -14.9,-3 -2.1,2.8 -12.9,1.2 -3.1,3.2 -1.9,-2.7 -6.5,1.2 -3,-1.2 1.8,-3.2 -2.8,-1.4 -3,-6.1 h -3.2 l -5.3,-4.9 1,-6.5 -10.4,-14.7 -0.2,-3.5 -6.1,-3.3 1.7,3.2 -11.3,0.5 -3.1,-1.6 -1.5,-6.8 -3.3,0.3 -0.3,-3.6 -6.1,-3.6 -7.5,6.7 -2.5,-2.6 -10.9,0.2 -6.3,0.9 -4.1,5.4 -13.8,0.9 2.5,6.4 4.8,4.6 5.3,20.1 -0.3,8.4 2.8,2.2 -10.2,5 -2.6,-2 -7.3,0.3 1.5,-3.3 -9.9,3.9 -5.1,10.8 3.3,1 4.6,9 -3.1,0.5 1.8,6 -3.3,6.5 -5.3,3.601 1.4,4.899 8.8,5.5 11.7,12.5 2.4,8.4 v 0.1 l 0.6,3 -2.4,3.801 -2.8,-8.801 -12,-11.8 -1.1,-3.1 -3.299,6.4 -6.9,56.4 4.4,-8.8 5,5.8 0.3,3.2 -7.2,-1 -3.6,7.7 0.1,5.3 -12.3,56.2 -4.3,8 h -0.1 l -5.1,7.1 -7.1,5.2 6.5,3 0.6,3.6 2.5,-2.399 7.4,1.5 1.6,3.199 -2.1,6.601 -2.9,2.6 1.4,3.2 4.4,1.1 0.5,-4.1 3.3,-1 0.3,3.8 6.6,3.5 10.8,4.2 7.1,-0.4 2.9,5.301 8.8,7.199 2.6,-1.8 2.6,1.601 6.7,-3.5 0.1,0.1 v -0.1 l 1.4,-9.601 1.8,-3.2 3.8,-0.899 -0.5,-3.3 9.1,-10.4 -0.9,-3.4 3,-1.6 L 211,527 h -3.2 l 1.6,-3.1 -2.8,-6.5 v 0 l -7.4,-0.4 -1.8,-3 4.8,-12.5 -0.5,-7.1 10.4,-3.1 0.8,3.399 2.8,-1.5 0.3,-3.2 v -0.1 l 4.2,0.7 1.6,-2.8 9.3,0.8 5.7,-3.2 9.6,1.1 3,-1.5 4,-5.3 3.2,0.3 -1.5,-3.1 5,-6.101 -2.7,-1.6 v -3.3 l 8.4,-2.2 -3,-10.2 3.8,-3.6 5.3,-7.2 6.8,-3.8 -0.8,-4 5.1,-3.601 1.6,-6 0.8,-5.699 9,-0.801 7.6,6.801 5.9,-3 7.6,0.199 3.7,-2.199 -1.7,-3.7 3.5,-1.3 0.3,-3.801 2.601,-2.199 -2,-2.5 8.5,-10.7 0.699,-3.9 7,2.3 -2.199,-15.6 2,-2.8 -1.4,-6.2 -5,-6.2 10.5,-9.7 -2.6,-7.6 0.6,-4.6 -4.1,-9.3 c -2.7,-1.9 -5.5,-3.7 -8.301,-5.5 z m -120.1,214 0.1,3.1 -2.5,-1.8 z"
           id="path14" />
        <path
           fill="#fbfaf9"
           d="m 178.5,114 -6,2.6 -7.2,-11.8 2.8,-8.8 -1.2,-3.1 -7.3,-0.8 -2.8,2 -7.3,0.5 -12.8,-5.2 -0.2,3.2 3.7,2 0.6,5.5 -2.2,2.3 2.9,11.4 9.5,10.3 -1.5,11.3 2.2,3.2 -0.6,6.7 -2.5,6.4 4.7,10.5 2.9,1.5 2.8,-1.8 -1.1,3.3 -7.9,0.9 5.3,10.7 3,1 8,-5.3 6.1,2.6 9.7,0.9 3.7,4.2 2.7,-1.8 2.8,1.9 7.6,-3.7 h 10.2 l 0.8,-3.1 3.1,0.3 2.2,6.8 3.6,1.7 v 3.3 l 3.4,0.1 12.3,-6.5 3.1,1.7 1.8,9.4 8.1,5.6 3.2,-1.1 3.6,3.9 3.5,0.8 h 0.1 -0.1 l -1.2,-8.4 8.5,-5.8 -0.6,-5.1 0.2,-5.1 -5.3,-4.9 -0.2,-3.6 2.7,-2.9 6.7,-1.2 6,-3.6 3.2,1.8 6.7,-1.5 -0.3,-3.1 6.7,-7.8 -2,-6.6 2.7,-2.8 h 4.3 l 4.4,-10.6 4.5,-2.9 -4,-9.4 1.6,-9 -1.6,-9.9 3.4,-5.2 -3.8,-9.5 -14.1,-12 v 0 l -0.2,0.3 -12.2,8.5 -24.8,6.2 -16,8.6 -6.5,14.2 1.9,2.5 9.9,2.2 0.2,0.1 -1.7,0.7 -7.9,1.8 -5.4,4.7 -10.9,3.1 -9.5,-4 -14,-1.6 z"
           id="path16" />
        <path
           fill="#fbfaf9"
           d="m 114,161.8 -4,0.3 -12.1,10 -1,-4.1 -4.5,-2.9 -0.1,-3.5 -5.1,-8.8 -3.3,-0.7 0.7,-3.2 -3.4,0.4 -1.9,3.3 1.5,-7.4 -5.3,3.6 -0.6,-4 -9.9,4.1 -1.6,-2.7 -5.1,4.1 -0.4,6.9 -3.6,0.6 -5.5,-3.4 -3.2,0.7 -0.7,3.8 -2.5,-3 -1.8,3.6 -0.1,-7.3 -16.2,4.9 -1.7,-3 -11.4,6.2 2.9,1.5 -9.4,-1 -2.1,2.7 -1.6,10.1 2,2.6 3.1,-1.3 2.9,1.4 13.8,-4.1 -4.2,2 -0.6,3.8 6.7,-1.6 -0.5,3.2 3.3,1.4 -3.5,0.7 7.1,3 -6.7,-1.6 -1.6,-2.8 -4.2,1.2 -6.5,-1.3 -1.9,-2.7 -1.7,4.1 2.7,5.9 2,-3.1 3.1,0.3 6.1,3.5 1,3.6 -1.8,2.8 -2.7,-1.5 -14.2,1.4 -1.7,2.8 10.7,4 4.2,7 -1.2,6.2 8.2,0.7 4.1,-4.7 v -0.4 -0.1 l -0.9,-3.2 1.2,-0.2 0.4,-3.5 1.6,3.2 -2,0.3 -0.3,3.5 3.3,2.2 5.2,-1.9 5.3,6.7 3.2,-0.7 v -3.2 l 0.4,3.1 v 0.1 l 2.9,-1.1 -0.7,3.2 3.2,0.7 4.3,-1.7 0.2,-3.4 0.8,8.6 2.8,1.8 3.1,-1.5 v -0.1 l -0.5,-6.5 0.6,3.4 3.3,0.6 -2.4,2.4 1.7,3 4.1,1.7 3,-1.3 -2.8,1.4 0.4,3.1 2.4,3.2 -0.9,4.1 2.4,2.6 -1.3,-3.2 3,-2.7 3.6,-0.8 2.7,2 -1.4,-6.6 3.5,5.5 1.7,-2.9 4.1,0.7 2.4,2.7 -2.2,2.8 -7.1,-0.9 5.4,4.2 13.9,-1.1 3.1,1.7 -3.4,0.2 1.8,2.9 17.3,-5.1 0.4,-6.7 5.9,-3.8 14.7,-0.5 1.8,-3.2 10.1,-4.4 7.7,4 0.5,-2.4 4,-9.7 6.2,-2.5 -2.1,-19.5 1.7,-2.6 0.1,-13.6 -6.1,-2.6 -8,5.3 -3,-1 -5.3,-10.7 h -13 l 0.3,-6.3 -3.6,0.8 -4.5,4.3 2.9,6.3 -2.6,-2.1 -2,-5 h -3.2 v 2.1 l -4.6,0.4 -1.1,-3.5 -3.4,1.6 z"
           id="path18" />
        <path
           fill="#fbfaf9"
           d="m 144.2,225.8 -1.8,3.2 -14.7,0.5 -5.9,3.8 -0.4,6.7 -17.3,5.1 -5,4.9 2.7,6.9 6.8,1.2 2.3,2.2 5.5,-4.1 8.1,-0.7 -7.6,2.9 -0.7,7.5 -3.4,1.4 6.7,2.4 5.4,5.6 -8.8,9.3 0.5,5 11.7,13.7 2.3,7.9 9.1,7.6 5.4,1.2 1.7,4 6.8,1.3 5.2,4.3 0.8,-3.1 3.2,0.5 9.9,-3.9 -1.5,3.3 7.3,-0.3 2.6,2 10.2,-5 -2.8,-2.2 0.3,-8.4 -5.3,-20.1 -4.8,-4.6 -2.5,-6.4 13.8,-0.9 4.1,-5.4 6.3,-0.9 10.9,-0.2 2.5,2.6 7.5,-6.7 v -0.1 l 6.4,-17.2 1.9,-10.4 0.9,-2.7 6.8,2.9 -0.5,-3.7 3.1,0.3 8.6,-5 0.7,-4 3.6,-1.1 7,-12 -0.4,-6.2 -2,-2.5 2.3,-2.3 v -0.1 l 0.5,-2 -2.3,-4.3 h -0.1 l -3.5,-0.8 -3.6,-3.9 -3.2,1.1 -8.1,-5.6 -1.8,-9.4 -3.1,-1.7 -12.3,6.5 -3.4,-0.1 v -3.3 l -3.6,-1.7 -2.2,-6.8 -3.1,-0.3 -0.8,3.1 h -10.2 l -7.6,3.7 -2.8,-1.9 -2.7,1.8 -3.7,-4.2 -9.7,-0.9 -0.1,13.6 -1.7,2.6 2.1,19.5 -6.2,2.5 -4,9.7 -0.5,2.4 -7.7,-4 z"
           id="path20" />
        <path
           fill="#fbfaf9"
           d="m 302,425.601 -7.6,-6.801 -9,0.801 -0.8,5.699 -1.6,6 -5.1,3.601 0.8,4 -6.8,3.8 -5.3,7.2 -3.8,3.6 3,10.2 -8.4,2.2 v 3.3 l 2.7,1.6 -5,6.101 1.5,3.1 -3.2,-0.3 -4,5.3 -3,1.5 -9.6,-1.1 -5.7,3.2 -9.3,-0.8 -1.6,2.8 -4.2,-0.7 v 0.1 l -0.3,3.2 -2.8,1.5 -0.8,-3.399 -10.4,3.1 0.5,7.1 -4.8,12.5 1.8,3 7.4,0.4 v 0 l 2.8,6.5 -1.6,3.1 h 3.2 l 0.6,8.2 -3,1.6 0.9,3.4 -9.1,10.4 0.5,3.3 -3.8,0.899 -1.8,3.2 -1.4,9.601 v 0.1 l 12.6,11.2 13.7,-1.9 2.8,2.4 11.1,-0.2 7,0.4 2.6,-2.5 -0.4,-7.301 2.7,-1.5 7.6,2.601 11.2,2.899 5.4,4.9 7.2,-0.5 6.4,8.5 1.1,-3.3 3.8,-0.2 11.9,5.7 -2.2,5.5 9.9,2.899 2.601,6.4 3.6,0.2 5,-4.5 3.6,-0.2 10.601,2.5 5.2,4 7,-0.5 v -3.399 l 9.1,-4.7 7.1,-1.301 9.601,2.601 -6.5,-8.101 -0.4,-19.699 0.5,-11.101 6.3,-12 3,-3 6.101,-4.6 h 7.6 l 7.5,-8.101 12.3,-8.899 9.4,-2.7 3.3,5.5 3.4,0.8 h 0.2 l 4.3,-6.6 6.5,-2 -1.101,-3.1 4.7,-5.4 3.7,1 2.1,-11.9 9.5,-10.199 -7.1,-7.2 L 446.8,475 443.901,469.9 437.1,466.1 H 434 l -2.8,2.5 -0.2,-3.5 -7.9,4.9 -8.699,-5.6 -7.9,-16 -2.3,-10.2 -10.101,-8.6 -3.2,-0.3 -0.2,3.2 -7.2,-1.399 -1.7,-6.4 -2.5,-1.9 -8.7,7.5 -2,-2.5 -7.8,17.801 -2.899,-5.7 0.6,-3.4 -2.7,-1.8 -1.401,-4.702 -5.9,-4.5 -5.3,4.8 -3.4,10.101 -4.3,5.5 -7.1,-1.8 -5.801,3.6 -3.699,-5.6 2,-6.4 -4.301,-6.8 -1.1,-6.101 -7.6,-0.199 z"
           id="path22" />
        <path
           fill="#fbfaf9"
           d="m 558.1,425.4 -6.8,-0.3 -5.899,-3.7 -0.9,-7.4 -3.1,-0.1 -2.601,-5.9 v 0 l -6.8,1.3 -2.3,2.2 -8.7,-3.899 -1.7,4.3 1.9,4.7 4.899,3.5 -0.399,6.6 -3.4,-1.3 -14.2,4.3 -1,3.2 -6.2,1.399 -1.101,3.4 -0.399,3.8 -6.4,0.4 -2.8,7.6 3.3,2.5 -2.8,2.8 -4.601,-1.6 -3.699,5.7 1.699,3 11.2,6.399 -0.2,5.301 -1.1,0.2 -2.6,0.1 -4.801,5.4 -5.898,-2.6 -0.101,-3.2 -10.5,-0.899 -0.5,-6.5 -2.8,2.5 -2.699,-1.601 -9.8,4.4 -4,-4.8 -6.5,-0.801 0.101,4.101 2.899,5.1 0.2,6.101 7.1,7.2 -9.5,10.199 -2.1,11.9 -3.7,-1 -4.7,5.4 1.101,3.1 -6.5,2 -4.3,6.6 16.1,0.5 2.2,2.8 -0.5,3.101 4.1,1 10.9,-1.3 -2.501,-2.601 1.399,-2.8 3.101,0.3 5.2,6.101 14.8,-1.7 4.399,9.899 10.9,2.7 3.1,-1 0.2,0.2 6.9,4 -0.4,3.1 10,-2.899 6.7,1.8 1.3,3.2 2.3,-6.2 8.301,1.4 0.1,-3.2 6.3,-1.4 3,-2.8 4.3,0.4 2.5,-6.101 -4,-1.8 6.9,-9.1 6.1,-0.801 4.9,-8.699 6.4,-3 1.199,-4.7 16.2,-8.8 0.601,-8.1 6.899,-9.699 2.3,-4.9 -4.5,-5.9 -13.3,4.7 -10.3,-5.5 -7.1,-1.4 -6.9,-8.3 -0.2,-0.1 2.2,-5.601 -4.4,-6.1 2.5,-2 1.5,-6.7 v -0.1 l 0.2,-0.2 2,-2.4 4,0.101 z m -87.6,99.8 3.7,-1.5 -2.5,4.2 -3.601,1.3 -5.1,-4.8 0.6,-3.8 h 4.5 z"
           id="path24" />
        <path
           fill="#fbfaf9"
           d="m 70.5,253.7 4.4,-1.4 -5.7,-3.8 -3.2,0.4 1,3.7 z"
           id="path26" />
        <path
           fill="#eff6f2"
           d="m 146.7,332.6 v 0 l -0.1,0.1 5,4.5 3.3,-1.4 -6.1,-3.899 z"
           id="path28" />
        <path
           fill="#eff6f2"
           d="m 156.8,350 -5.8,-3.8 -1.9,3.1 7.2,12.601 1.5,-3.601 z"
           id="path30" />
        <path
           fill="#fbfaf9"
           d="m 569.8,578.9 0.601,-12 -2,-10.2 -3.2,-1.2 -2.601,2.3 0.5,19.5 -9.699,-1.5 -3.9,5.5 -12.1,4.801 -0.9,3.199 -3.2,0.301 -2.401,3.199 0.3,3.9 -4.4,5.601 -0.6,3.199 2.899,-1.1 4.301,4.7 -5.9,4.2 1.2,6.199 8.899,5 -3,1.801 -3.3,9.399 8.101,-2.899 1.1,6.5 -3,7.899 10.6,2.101 -5.5,3.7 -0.199,3.4 5.399,4.9 12.601,3.8 1.399,3.2 3.3,1.399 6.601,-16.6 -3.7,-0.3 3,-2.301 2.3,-6.1 -0.8,-9.7 v -6.899 l 6.1,-13.4 -4.3,-29.2 z"
           id="path32" />
        <line
           fill="none"
           stroke="#333333"
           stroke-width="2"
           stroke-linecap="round"
           stroke-linejoin="round"
           x1="556.09998"
           y1="438.5"
           x2="556.29999"
           y2="438.20001"
           id="line34" />
        <polyline
           fill="none"
           stroke="#666666"
           stroke-width="2"
           stroke-linecap="round"
           stroke-linejoin="round"
           points="206.4,540    203.9,538.2 206.3,536.9 206.4,540  "
           id="polyline36" />
        <polyline
           fill="none"
           stroke="#666666"
           stroke-width="2"
           stroke-linecap="round"
           stroke-linejoin="round"
           points="122.2,530.4    128.7,533.4 129.3,537 131.8,534.601 139.2,536.101 140.8,539.3 138.7,545.9 135.8,548.5 137.2,551.7 141.6,552.8 142.1,548.7    145.4,547.7 145.7,551.5 152.3,555 163.1,559.2 170.2,558.8 173.1,564.101 181.9,571.3 184.5,569.5 187.1,571.101 193.8,567.601    193.9,567.7 206.5,578.9 220.2,577 223,579.4 234.1,579.2 241.1,579.601 243.7,577.101 243.3,569.8 246,568.3 253.6,570.9    264.8,573.8 270.2,578.7 277.4,578.2 283.8,586.7 284.9,583.4 288.7,583.2 300.6,588.9 298.4,594.4 308.3,597.3 310.9,603.7    314.5,603.9 319.5,599.4 323.1,599.2 333.7,601.7 338.9,605.7 345.9,605.2 345.9,601.801 355,597.101 362.1,595.8 371.7,598.4  "
           id="polyline38" />
        <polyline
           fill="none"
           stroke="#666666"
           stroke-width="2"
           stroke-linecap="round"
           stroke-linejoin="round"
           points="586.8,498.101    587.4,490 594.3,480.301 596.6,475.4 592.1,469.5 578.8,474.2 568.5,468.7 561.4,467.3 554.5,459 554.3,458.9 556.5,453.3    552.1,447.2 554.6,445.2 556.1,438.5 556.1,438.4 556.3,438.2 558.3,435.8 562.3,435.9 558.1,425.4 551.3,425.101 545.4,421.4    544.5,414 541.4,413.9 538.8,408 538.8,407.9 560.5,398.601 562.7,394.5 561.4,391.601 564.5,385.8 556.3,380 553.8,373.9    554.6,370.4 548.3,367.8 545.1,364.8 544.6,361.2 544.7,361.101 554,352 555.1,348.5 551.3,343.4 542.6,335.101 545.1,328.2    541,322.1 541.6,318.9 537.8,318.1 528.3,318.8 522.6,323.5 518.8,321.9 515.6,328.4 518.3,331.8 510.5,337.9 502.6,338.9    502.6,338.8 503.2,333.2 509.7,329.2 510.9,321.4 507,319.2 506.8,319.1 510.8,305.5 524,293.4 523.1,282.5 532.7,275.8    545.9,259.6 545.6,256.4 548.2,254 543.4,250 544.5,246.7 548.7,241.9 553.1,241.3 553.4,241.4 556.4,242 555.5,245.4 564,245.4    567,244.3 567.6,240.9 570.8,240.7 571,237.2 573.5,235 570.3,226.3 573.3,209 571.1,197.4 577.8,181.7 579.5,164.1 591.2,148.8    595.6,136.8 586.1,133.4 569.5,132.8 560.1,124.4 553.1,129.1 545.3,127.7 542.4,129.1 539.9,124.7 536.5,123.1 533.4,124.9    533.1,128.2 530,127.4 521,117.1 519.1,110.6 515.7,108.3 503.3,105.4 498.3,109.3 495.2,109.4 489.4,106.8 485.4,103.5    477.7,103.5 476.3,106.6 470,107.4 466.1,99.3 462.6,99.6 462.6,96.1 455.8,94.4 448.2,87.7 441.6,87.9 442.6,80.6 439.4,74.2    439.4,69.6 442.4,63.8 439.4,62.1 434.7,66.9 432.8,74.1 423,78.5 417,76.6 413.8,77.3 413.4,77.3 409.3,76 413,68.9 409.6,63    411.9,55.7 408.8,56.4 404.2,50.9 397.4,52.1 391.3,50.7 388.8,52.9 386.4,42.7 380.3,41.2 379,38.2 375.8,40.6 372.2,39.4    368.8,29.9 369.3,26.5 364.9,21.6 358.3,22.1 352.1,26.4 348.8,25 345.6,19.1 341.9,19.1 340.4,16.1 341.6,9.7 338.7,2.9 335.6,1     "
           id="polyline40" />
        <polyline
           fill="none"
           stroke="#8ca2c0"
           stroke-width="2"
           stroke-linecap="round"
           stroke-linejoin="round"
           points="471,238.3    465.6,240.4 465.6,237.2 462.2,235.5 451.9,233.2 449.3,227.8 452.4,225.1 451.3,221.7 449.3,219.1 446,218.8 446.4,215.6    443.4,214.5 442.8,211.4 438.9,210.6 438.9,210.7 434.6,210.1 429.3,214.5 422.4,215.5 419.9,217.7 416.6,216.2 402.5,218    396.9,205.7 392.8,201 390.6,203.5 387.8,194.2 382.8,188 378.7,186.3  "
           id="polyline42" />
        <polyline
           fill="none"
           stroke="#8ca2c0"
           stroke-width="2"
           stroke-linecap="round"
           stroke-linejoin="round"
           points="378.7,186.3    378.2,176.7 381.5,175.9 384.9,170.3 382,168.4 378.1,159.1 380.9,156.6 381.5,154.3  "
           id="polyline44" />
        <polyline
           fill="none"
           stroke="#8ca2c0"
           stroke-width="2"
           stroke-linecap="round"
           stroke-linejoin="round"
           points="356.8,202.3    344.2,205.3 333.9,204.5 336.9,202.8 337.5,199.8 332.8,195 332,191.5 327.8,190.9 324.7,192.8 323,189.9 320.9,193 313.1,193.9    313.1,193.9 309.9,182 306.4,182.7 303.9,180.3 302.5,174 295.6,167.9 295.1,155.7 290.9,148.3  "
           id="polyline46" />
        <polyline
           fill="none"
           stroke="#8ca2c0"
           stroke-width="2"
           stroke-linecap="round"
           stroke-linejoin="round"
           points="378.7,186.3    361.4,189.8 361.2,196.3 356.8,202.3  "
           id="polyline48" />
        <polyline
           fill="none"
           stroke="#8ca2c0"
           stroke-width="2"
           stroke-linecap="round"
           stroke-linejoin="round"
           points="356.8,202.3    364.3,210.8 364.8,217.2 359.6,222.7 360.8,226 359,228.7 353.1,232.4 356.5,235.6 359,243.4 355.8,244.1 354.1,246.8 356.3,254.1    354.4,260.6 357.5,263 361,271.5 361.3,278.1 363.8,280.3 363.5,286.9 362,296.9  "
           id="polyline50" />
        <path
           fill="none"
           stroke="#8ca2c0"
           stroke-width="2"
           stroke-linecap="round"
           stroke-linejoin="round"
           d="m 315.5,422.8 3.7,-2.199 -1.7,-3.7 3.5,-1.3 0.3,-3.801 2.601,-2.199 -2,-2.5 8.5,-10.7 0.699,-3.9 7,2.3 -2.199,-15.6 2,-2.8 -1.4,-6.2 -5,-6.2 10.5,-9.7 -2.6,-7.6 0.6,-4.6 -4.1,-9.3 c -2.7,-1.9 -5.5,-3.7 -8.301,-5.5 l -1.199,-4.4 v 0 l 3.899,-6.7 9.8,-1.1 1.9,-2.7 -1.9,-6 2.5,-2.1 9.5,-3.2 5.4,-4.2 h 4.5"
           id="path52" />
        <polyline
           fill="none"
           stroke="#8ca2c0"
           stroke-width="2"
           stroke-linecap="round"
           stroke-linejoin="round"
           points="371.7,598.4    365.2,590.3 364.8,570.601 365.3,559.5 371.6,547.5 374.6,544.5 380.7,539.9 388.3,539.9 395.8,531.8 408.1,522.9 417.5,520.2    420.8,525.7 424.2,526.5 424.4,526.5  "
           id="polyline54" />
        <polyline
           fill="none"
           stroke="#8ca2c0"
           stroke-width="2"
           stroke-linecap="round"
           stroke-linejoin="round"
           points="326.4,322.9    320.9,322.7 317.8,323.6 302.9,320.6 300.8,323.4 287.9,324.6 284.8,327.8 282.9,325.1 276.4,326.3 273.4,325.1 275.2,321.9    272.4,320.5 269.4,314.4 266.2,314.4 260.9,309.5 261.9,303 251.5,288.3 251.3,284.8 245.2,281.5 246.9,284.7 235.6,285.2    232.5,283.6 231,276.8 227.7,277.1 227.4,273.5 221.3,269.9  "
           id="polyline56" />
        <polyline
           fill="none"
           stroke="#8ca2c0"
           stroke-width="2"
           stroke-linecap="round"
           stroke-linejoin="round"
           points="507,319.2    501.7,326.5 495.6,330.2 491.2,330.3 490.8,327.3 487,325.5 482.5,330.3 479.2,330.5 479.2,327.1 475.9,327.1 471.1,318.4    471,318.4 465.6,314.8 459.6,316.2 453,314.5 446.4,338 440,329.4 438.2,332 435.4,330.2 432.8,332.1 430.4,330.1 427.8,332.2    427.4,335.601 421,339.9 418.7,337.5 409.7,339.2 403.9,335.601 403.9,332.2 408.1,327 408.6,320.8 406.8,318.1 398,314.8    390.4,299.7 383.7,306.4 378.9,302.3 375.7,304.2 368.5,304 362,296.9  "
           id="polyline58" />
        <polyline
           fill="none"
           stroke="#8ca2c0"
           stroke-width="2"
           stroke-linecap="round"
           stroke-linejoin="round"
           points="461.9,465.5    457.4,466.9 455.2,464.4 456.6,461 459.6,458.5 464.6,461.5 461.9,465.5  "
           id="polyline60" />
        <polyline
           fill="none"
           stroke="#8ca2c0"
           stroke-width="2"
           stroke-linecap="round"
           stroke-linejoin="round"
           points="553.4,241.4    551.1,235.5 547.9,235.7 547.4,225.5 538.9,219.9 537.8,220.6 528.4,213.2 522.6,215.7 517.1,211.6 510.8,213.4 502.9,208.6    493.8,215.1 494.1,216.7 491.5,220.3 488.3,219.9 486,222.6 485.6,232 482.2,233.1 479.7,231.1 472.3,235.5 471,238.3  "
           id="polyline62" />
        <line
           fill="none"
           stroke="#8ca2c0"
           stroke-width="2"
           stroke-linecap="round"
           stroke-linejoin="round"
           x1="471"
           y1="238.3"
           x2="471"
           y2="238.3"
           id="line64" />
        <line
           fill="none"
           stroke="#8ca2c0"
           stroke-width="2"
           stroke-linecap="round"
           stroke-linejoin="round"
           x1="471"
           y1="238.3"
           x2="471"
           y2="238.3"
           id="line66" />
        <line
           fill="none"
           stroke="#8ca2c0"
           stroke-width="2"
           stroke-linecap="round"
           stroke-linejoin="round"
           x1="471"
           y1="238.3"
           x2="474.10001"
           y2="236.39999"
           id="line68" />
        <polyline
           fill="none"
           stroke="#8ca2c0"
           stroke-width="2"
           stroke-linecap="round"
           stroke-linejoin="round"
           points="236.9,113.7    229,115.5 223.6,120.2 212.7,123.3 203.2,119.3 189.2,117.7 178.5,114 172.5,116.6 165.3,104.8 168.1,96 166.9,92.9 159.6,92.1    156.8,94.1 149.5,94.6 136.7,89.4 136.5,92.6 140.2,94.6 140.8,100.1 138.6,102.4 141.5,113.8 151,124.1 149.5,135.4 151.7,138.6    151.1,145.3 148.6,151.7 153.3,162.2 156.2,163.7 159,161.9 157.9,165.2 150,166.1  "
           id="polyline70" />
        <polyline
           fill="none"
           stroke="#8ca2c0"
           stroke-width="2"
           stroke-linecap="round"
           stroke-linejoin="round"
           points="300.3,128.3    304.8,125.4 300.8,116 302.4,107 300.8,97.1 304.2,91.9 300.4,82.4 286.3,70.4 286.3,70.4  "
           id="polyline72" />
        <polyline
           fill="none"
           stroke="#8ca2c0"
           stroke-width="2"
           stroke-linecap="round"
           stroke-linejoin="round"
           points="286.3,70.4    286.1,70.7 273.9,79.2 249.1,85.4 233.1,94 226.6,108.2 228.5,110.7 238.4,112.9  "
           id="polyline74" />
        <polyline
           fill="none"
           stroke="#8ca2c0"
           stroke-width="2"
           stroke-linecap="round"
           stroke-linejoin="round"
           points="238.4,112.9    238.6,113 236.9,113.7  "
           id="polyline76" />
        <polyline
           fill="none"
           stroke="#8ca2c0"
           stroke-width="2"
           stroke-linecap="round"
           stroke-linejoin="round"
           points="238.4,112.9    236.9,113.6 236.9,113.7  "
           id="polyline78" />
        <polyline
           fill="none"
           stroke="#8ca2c0"
           stroke-width="2"
           stroke-linecap="round"
           stroke-linejoin="round"
           points="150,166.1    137,166.1 137.3,159.8 133.7,160.6 129.2,164.9 132.1,171.2 129.5,169.1 127.5,164.1 124.3,164.1 124.3,166.2 119.7,166.6    118.6,163.1 115.2,164.7 114,161.8 110,162.1 97.9,172.1 96.9,168 92.4,165.1 92.3,161.6 87.2,152.8 83.9,152.1 84.6,148.9    81.2,149.3 79.3,152.6 80.8,145.2 75.5,148.8 74.9,144.8 65,148.9 63.4,146.2 58.3,150.3 57.9,157.2 54.3,157.8 48.8,154.4    45.6,155.1 44.9,158.9 42.4,155.9 40.6,159.5 40.5,152.2 24.3,157.1 22.6,154.1 11.2,160.3 14.1,161.8 4.7,160.8 2.6,163.5    1,173.6 3,176.2 6.1,174.9 9,176.3 22.8,172.2 18.6,174.2 18,178 24.7,176.4 24.2,179.6 27.5,181 24,181.7 31.1,184.7 24.4,183.1    22.8,180.3 18.6,181.5 12.1,180.2 10.2,177.5 8.5,181.6 11.2,187.5 13.2,184.4 16.3,184.7 22.4,188.2 23.4,191.8 21.6,194.6    18.9,193.1 4.7,194.5 3,197.3 13.7,201.3 17.9,208.3 16.7,214.5 24.9,215.2 29,210.5 29,210.1  "
           id="polyline80" />
        <polyline
           fill="none"
           stroke="#8ca2c0"
           stroke-width="2"
           stroke-linecap="round"
           stroke-linejoin="round"
           points="29,210.1    32.3,212.3 37.5,210.4 42.8,217.1 46,216.4 46,213.2 46.4,216.3 46.4,216.4 49.3,215.3 48.6,218.5 51.8,219.2 56.1,217.5    56.3,214.1 57.1,222.7 59.9,224.5 63,223 63,222.9 62.5,216.4 63.1,219.8 66.4,220.4 64,222.8 65.7,225.8 69.8,227.5 72.8,226.2    70,227.6 70.4,230.7 72.8,233.9 71.9,238 74.3,240.6 73,237.4 76,234.7 79.6,233.9 82.3,235.9 80.9,229.3 84.4,234.8 86.1,231.9    90.2,232.6 92.6,235.3 90.4,238.1 83.3,237.2 88.7,241.4 102.6,240.3 105.7,242 102.3,242.2 104.1,245.1  "
           id="polyline82" />
        <polyline
           fill="none"
           stroke="#8ca2c0"
           stroke-width="2"
           stroke-linecap="round"
           stroke-linejoin="round"
           points="172.4,175.1    172.3,188.7 170.6,191.3 172.7,210.8 166.5,213.3 162.5,223 162,225.4 154.3,221.4 144.2,225.8 142.4,229 127.7,229.5 121.8,233.3    121.4,240 104.1,245.1  "
           id="polyline84" />
        <polyline
           fill="none"
           stroke="#8ca2c0"
           stroke-width="2"
           stroke-linecap="round"
           stroke-linejoin="round"
           points="29.3,206.6    31.3,206.3 29.7,203.1 29.3,206.6  "
           id="polyline86" />
        <polyline
           fill="none"
           stroke="#8ca2c0"
           stroke-width="2"
           stroke-linecap="round"
           stroke-linejoin="round"
           points="413.8,77.3    414.7,83.7 413.2,87.6 414.7,91.1 409.1,99.2 406,99.5 406.3,115.6 405.3,118.7 399.2,116.6 390.3,121.1 388.9,124.1 392.5,133.2    386.4,135.7 388.2,138.4 387.2,141.5 390,142.9 381.5,154.3  "
           id="polyline88" />
        <line
           fill="none"
           stroke="#8ca2c0"
           stroke-width="2"
           stroke-linecap="round"
           stroke-linejoin="round"
           x1="29"
           y1="210.10001"
           x2="29.299999"
           y2="206.60001"
           id="line90" />
        <polyline
           fill="none"
           stroke="#8ca2c0"
           stroke-width="2"
           stroke-linecap="round"
           stroke-linejoin="round"
           points="111.6,274.7    109.5,277.2 116.3,283.8 116.1,280.2 112.7,278.2 111.6,274.7  "
           id="polyline92" />
        <polyline
           fill="none"
           stroke="#8ca2c0"
           stroke-width="2"
           stroke-linecap="round"
           stroke-linejoin="round"
           points="104.1,245.1    99.1,250 101.8,256.9 108.6,258.1 110.9,260.3 116.4,256.2 124.5,255.5 116.9,258.4 116.2,265.9 112.8,267.3 119.5,269.7    124.9,275.3 116.1,284.6 116.6,289.6 128.3,303.3 130.6,311.2 139.7,318.8 145.1,320 146.8,324 153.6,325.3 158.8,329.6    159.6,326.5 162.8,327  "
           id="polyline94" />
        <polyline
           fill="none"
           stroke="#8ca2c0"
           stroke-width="2"
           stroke-linecap="round"
           stroke-linejoin="round"
           points="74.9,252.3    69.2,248.5 66,248.9 67,252.6 70.5,253.7 74.9,252.3  "
           id="polyline96" />
        <polyline
           fill="none"
           stroke="#8ca2c0"
           stroke-width="2"
           stroke-linecap="round"
           stroke-linejoin="round"
           points="146.7,332.6    143.9,330.2 144,330.4  "
           id="polyline98" />
        <polyline
           fill="none"
           stroke="#8ca2c0"
           stroke-width="2"
           stroke-linecap="round"
           stroke-linejoin="round"
           points="144,330.4    143.7,330.2 145,333.2 145.8,332.9  "
           id="polyline100" />
        <polyline
           fill="none"
           stroke="#8ca2c0"
           stroke-width="2"
           stroke-linecap="round"
           stroke-linejoin="round"
           points="290.9,148.3    288.9,141.7 291.6,138.9 295.9,138.9 300.3,128.3  "
           id="polyline102" />
        <polyline
           fill="none"
           stroke="#8ca2c0"
           stroke-width="2"
           stroke-linecap="round"
           stroke-linejoin="round"
           points="257.9,199.5    257.8,199.5 256.6,191.1 265.1,185.3 264.5,180.2 264.7,175.1 259.4,170.2 259.2,166.6 261.9,163.7 268.6,162.5 274.6,158.9    277.8,160.7 284.5,159.2 284.2,156.1 290.9,148.3  "
           id="polyline104" />
        <polyline
           fill="none"
           stroke="#8ca2c0"
           stroke-width="2"
           stroke-linecap="round"
           stroke-linejoin="round"
           points="257.9,199.5    257.8,199.5 254.3,198.7 250.7,194.8 247.5,195.9 239.4,190.3 237.6,180.9 234.5,179.2 222.2,185.7 218.8,185.6 218.8,182.3    215.2,180.6 213,173.8 209.9,173.5 209.1,176.6 198.9,176.6 191.3,180.3 188.5,178.4 185.8,180.2 182.1,176 172.4,175.1  "
           id="polyline106" />
        <polyline
           fill="none"
           stroke="#8ca2c0"
           stroke-width="2"
           stroke-linecap="round"
           stroke-linejoin="round"
           points="221.3,269.9    221.3,269.8 227.7,252.6 229.6,242.2 230.5,239.5 237.3,242.4 236.8,238.7 239.9,239 248.5,234 249.2,230 252.8,228.9 259.8,216.9    259.4,210.7 257.4,208.2 259.7,205.9 259.7,205.8 260.2,203.8 257.9,199.5  "
           id="polyline108" />
        <polyline
           fill="none"
           stroke="#8ca2c0"
           stroke-width="2"
           stroke-linecap="round"
           stroke-linejoin="round"
           points="150,166.1    155.3,176.8 158.3,177.8 166.3,172.5 172.4,175.1  "
           id="polyline110" />
        <polyline
           fill="none"
           stroke="#8ca2c0"
           stroke-width="2"
           stroke-linecap="round"
           stroke-linejoin="round"
           points="221.3,269.9    213.8,276.6 211.3,274 200.4,274.2 194.1,275.1 190,280.5 176.2,281.4 178.7,287.8 183.5,292.4 188.8,312.5 188.5,320.9    191.3,323.1 181.1,328.1 178.5,326.1 171.2,326.4 172.7,323.1 162.8,327  "
           id="polyline112" />
        <polyline
           fill="none"
           stroke="#8ca2c0"
           stroke-width="2"
           stroke-linecap="round"
           stroke-linejoin="round"
           points="146.7,332.6    146.7,332.6 146.6,332.7  "
           id="polyline114" />
        <polyline
           fill="none"
           stroke="#8ca2c0"
           stroke-width="2"
           stroke-linecap="round"
           stroke-linejoin="round"
           points="146.6,332.7    146.5,332.6 146.7,332.6  "
           id="polyline116" />
        <line
           fill="none"
           stroke="#8ca2c0"
           stroke-width="2"
           stroke-linecap="round"
           stroke-linejoin="round"
           x1="145.8"
           y1="332.89999"
           x2="146.5"
           y2="332.70001"
           id="line118" />
        <line
           fill="none"
           stroke="#8ca2c0"
           stroke-width="2"
           stroke-linecap="round"
           stroke-linejoin="round"
           x1="146.5"
           y1="332.70001"
           x2="146.60001"
           y2="332.70001"
           id="line120" />
        <polyline
           fill="none"
           stroke="#8ca2c0"
           stroke-width="2"
           stroke-linecap="round"
           stroke-linejoin="round"
           points="145.8,332.9    145.1,333.2 144,330.4  "
           id="polyline122" />
        <polyline
           fill="none"
           stroke="#8ca2c0"
           stroke-width="2"
           stroke-linecap="round"
           stroke-linejoin="round"
           points="146.6,332.7    151.6,337.2 154.9,335.8 148.8,331.9 146.7,332.6  "
           id="polyline124" />
        <line
           fill="none"
           stroke="#8ca2c0"
           stroke-width="2"
           stroke-linecap="round"
           stroke-linejoin="round"
           x1="144"
           y1="330.39999"
           x2="146.5"
           y2="332.70001"
           id="line126" />
        <polyline
           fill="none"
           stroke="#8ca2c0"
           stroke-width="2"
           stroke-linecap="round"
           stroke-linejoin="round"
           points="315.5,422.8    307.9,422.601 302,425.601 294.4,418.8 285.4,419.601 284.6,425.3 283,431.3 277.9,434.9 278.7,438.9 271.9,442.7 266.6,449.9    262.8,453.5 265.8,463.7 257.4,465.9 257.4,469.2 260.1,470.8 255.1,476.9 256.6,480 253.4,479.7 249.4,485 246.4,486.5    236.8,485.4 231.1,488.601 221.8,487.801 220.2,490.601 216,489.9 216,490 215.7,493.2 212.9,494.7 212.1,491.301 201.7,494.4    202.2,501.5 197.4,514 199.2,517 206.6,517.4 206.6,517.4 209.4,523.9 207.8,527 211,527 211.6,535.2 208.6,536.8 209.5,540.2    200.4,550.601 200.9,553.9 197.1,554.8 195.3,558 193.9,567.601 193.9,567.7  "
           id="polyline128" />
        <polyline
           fill="none"
           stroke="#8ca2c0"
           stroke-width="2"
           stroke-linecap="round"
           stroke-linejoin="round"
           points="151,346.2    149.1,349.3 156.3,361.9 157.8,358.3 156.8,350 151,346.2  "
           id="polyline130" />
        <polyline
           fill="none"
           stroke="#8ca2c0"
           stroke-width="2"
           stroke-linecap="round"
           stroke-linejoin="round"
           points="162.8,327    157.7,337.8 161,338.8 165.6,347.8 162.5,348.3 164.3,354.3 161,360.8 155.7,364.4 157.1,369.3 165.9,374.8 177.6,387.3 180,395.7    180,395.8 180.6,398.8 178.2,402.601 175.4,393.8 163.4,382 162.3,378.9 159,385.3 152.1,441.7 156.5,432.9 161.5,438.7    161.8,441.9 154.6,440.9 151,448.601 151.1,453.9 138.8,510.101 134.5,518.101 134.4,518.101 129.3,525.2 122.2,530.4  "
           id="polyline132" />
        <polyline
           fill="none"
           stroke="#8ca2c0"
           stroke-width="2"
           stroke-linecap="round"
           stroke-linejoin="round"
           points="381.5,154.3    371,147.6 366.6,142.9 367.3,139.7 365.4,136.9 362.4,136.1 353.3,139.4 350.5,137.6 348.2,140.1 340.5,138.9 328.3,131.8    325.8,133.6 315.5,131.1 308.4,133.2 302.1,131.9 300.3,128.3  "
           id="polyline134" />
        <polyline
           fill="none"
           stroke="#8ca2c0"
           stroke-width="2"
           stroke-linecap="round"
           stroke-linejoin="round"
           points="335.6,1    317.3,5.6 301.9,10.4 295.4,16 295.4,36.2 298.7,40.1 295.6,38.2 294.8,44.8 295.3,49.1 297.9,50.9 293.7,52.5 293.3,55.9    296.7,62.1 293.6,60.4 286.3,70.4  "
           id="polyline136" />
        <polyline
           fill="none"
           stroke="#8ca2c0"
           stroke-width="2"
           stroke-linecap="round"
           stroke-linejoin="round"
           points="538.8,408    538.8,408 532,409.3 529.7,411.5 521,407.601 519.3,411.9 521.2,416.601 526.1,420.101 525.7,426.7 522.3,425.4 508.1,429.7    507.1,432.9 500.9,434.3 499.8,437.7 499.4,441.5 493,441.9 490.2,449.5 493.5,452 490.7,454.8 486.1,453.2 482.4,458.9    484.1,461.9 495.3,468.3 495.1,473.601 494,473.801 491.4,473.9 486.6,479.301 480.7,476.7 480.6,473.5 470.1,472.601    469.6,466.101 466.8,468.601 464.1,467 454.3,471.4 450.3,466.601 443.8,465.8 443.9,469.9  "
           id="polyline138" />
        <polyline
           fill="none"
           stroke="#8ca2c0"
           stroke-width="2"
           stroke-linecap="round"
           stroke-linejoin="round"
           points="474.2,523.7    471.7,527.9 468.1,529.2 463,524.4 463.6,520.601 468.1,520.601 470.5,525.2 474.2,523.7  "
           id="polyline140" />
        <polyline
           fill="none"
           stroke="#8ca2c0"
           stroke-width="2"
           stroke-linecap="round"
           stroke-linejoin="round"
           points="29.3,206.6    28.1,206.8 29,210 29,210.1  "
           id="polyline142" />
        <polyline
           fill="none"
           stroke="#8ca2c0"
           stroke-width="2"
           stroke-linecap="round"
           stroke-linejoin="round"
           points="424.4,526.5    440.5,527 442.7,529.8 442.2,532.9 446.3,533.9 457.2,532.601 454.7,530 456.1,527.2 459.2,527.5 464.4,533.601 479.2,531.9    483.6,541.8 494.5,544.5 497.6,543.5 497.8,543.7 504.7,547.7 504.3,550.8 514.3,547.9 521,549.7 522.3,552.9 524.6,546.7    532.9,548.101 533,544.9 539.3,543.5 542.3,540.7 546.6,541.101 549.1,535 545.1,533.2 552,524.101 558.1,523.3 563,514.601    569.4,511.601 570.6,506.9 586.8,498.101  "
           id="polyline144" />
        <polyline
           fill="none"
           stroke="#8ca2c0"
           stroke-width="2"
           stroke-linecap="round"
           stroke-linejoin="round"
           points="443.9,469.9    437.1,466.101 434,466.101 431.2,468.601 431,465.101 423.1,470 414.4,464.4 406.5,448.4 404.2,438.2 394.1,429.601 390.9,429.3    390.7,432.5 383.5,431.101 381.8,424.7 379.3,422.8 370.6,430.3 368.6,427.8 360.8,445.601 357.9,439.9 358.5,436.5 355.8,434.7    354.4,430 348.5,425.5 343.2,430.3 339.8,440.4 335.5,445.9 328.4,444.101 322.6,447.7 318.9,442.101 320.9,435.7 316.6,428.9    315.5,422.8  "
           id="polyline146" />
        <polyline
           fill="none"
           stroke="#8ca2c0"
           stroke-width="2"
           stroke-linecap="round"
           stroke-linejoin="round"
           points="424.4,526.5    428.7,519.9 435.2,517.9 434.1,514.801 438.8,509.4 442.5,510.4 444.6,498.5 454.1,488.301 447,481.101 446.8,475 443.9,469.9  "
           id="polyline148" />
        <polyline
           fill="none"
           stroke="#8ca2c0"
           stroke-width="2"
           stroke-linecap="round"
           stroke-linejoin="round"
           points="570.4,566.9    568.4,556.7 565.2,555.5 562.6,557.8 563.1,577.3 553.4,575.8 549.5,581.3 537.4,586.101 536.5,589.3 533.3,589.601 530.9,592.8    531.2,596.7 526.8,602.301 526.2,605.5 529.1,604.4 533.4,609.101 527.5,613.301 528.7,619.5 537.6,624.5 534.6,626.301    531.3,635.7 539.4,632.801 540.5,639.301 537.5,647.2 548.1,649.301 542.6,653 542.4,656.4 547.8,661.301 560.4,665.101    561.8,668.301 565.1,669.7 571.7,653.101 568,652.801 571,650.5 573.3,644.4 572.5,634.7 572.5,627.801 578.6,614.4 574.3,585.2    569.8,578.9 570.4,566.9  "
           id="polyline150" />
        <g
           id="g160">
          <path
             fill="#666666"
             d="m 526.3,548.8 c 0,0 -0.1,0 -0.2,0 v 0 c -0.1,0 -0.1,0 -0.1,0 l -0.1,0.101 c 0,0 0,0 -0.101,0.1 0,0 0,0 0,0.101 v 0.1 c 0,0.1 0,0.2 0,0.2 0,0.1 0.101,0.1 0.101,0.1 0,0.101 0.1,0.101 0.1,0.101 0.1,0 0.1,0 0.1,0 0.101,0 0.101,0 0.101,0 0.1,0 0.1,0 0.1,0 0,0 0,0 0.101,0 v 0 -0.103 H 526.3 c 0,0 -0.1,0 -0.2,0 v 0 c -0.1,0 -0.1,0 -0.1,-0.1 0,0 -0.1,0 -0.1,-0.101 0,0 0,0 0,-0.1 v -0.1 C 525.9,549 526,549 526,549 c 0,-0.1 0.1,-0.1 0.1,-0.1 v 0 c 0.101,0 0.101,0 0.2,0 0,0 0,0 0.101,0 v -0.1 z"
             id="path152" />
          <path
             fill="#666666"
             d="m 527,548.9 c 0.1,0 0.1,0 0.1,0 0,0.1 0,0.1 0,0.1 v 0.101 0.5 h 0.2 V 549 c 0,0 0.101,0 0.101,-0.1 h 0.1 c 0.1,0 0.1,0 0.1,0 v 0 c 0,0.1 0,0.1 0,0.1 v 0.101 0.5 h 0.2 v -0.5 c 0,-0.101 0,-0.101 0,-0.2 0,0 0,0 -0.1,-0.101 H 527.6 v 0 c -0.1,0 -0.199,0 -0.199,0 -0.101,0.1 -0.101,0.1 -0.101,0.1 -0.1,0 -0.1,0 -0.2,-0.101 0,0 0,0 -0.1,0 h -0.1 c 0,0 0,0 -0.101,0 0,0 0,0 0,0.101 0,0 0,0 -0.1,0 v 0 -0.1 H 526.6 v 0.801 h 0.101 V 549 c 0.1,0 0.1,0 0.1,-0.1 0.099,0 0.099,0 0.199,0 z"
             id="path154" />
          <path
             fill="#666666"
             d="m 528.3,548.8 h -0.1 -0.1 v 0 0.101 h 0.101 c 0.1,0 0.1,0 0.1,0 0.101,0 0.2,0 0.2,0 l 0.1,0.1 v 0 c 0,0.101 0,0.101 0,0.101 v 0.1 0 c -0.1,-0.1 -0.1,-0.1 -0.1,-0.1 -0.1,0 -0.1,0 -0.1,0 -0.101,0 -0.101,0 -0.2,0 l -0.101,0.1 c 0,0 0,0 0,0.1 0,0 -0.1,0 -0.1,0.101 l 0.1,0.1 v 0.101 c 0,0 0,0 0.101,0 h 0.1 c 0.101,0 0.101,0 0.101,0 h 0.1 v 0 c 0.1,0 0.1,-0.101 0.1,-0.101 v 0.101 h 0.101 v -0.5 c 0,-0.101 0,-0.101 0,-0.101 0,0 -0.101,0 -0.101,-0.1 0,0 0,0 0,-0.101 -0.1,0 -0.1,0 -0.199,0 C 528.3,548.8 528.3,548.8 528.3,548.8 Z m 0.3,0.5 v 0.101 c 0,0 0,0 0,0.1 -0.1,0 -0.1,0 -0.1,0 0,0 0,0 -0.1,0 0,0 0,0 -0.101,0 v 0 h -0.1 c 0,0 0,0 0,-0.1 -0.101,0 -0.101,0 -0.101,0 0,-0.101 0.101,-0.101 0.101,-0.101 0.1,-0.1 0.1,-0.1 0.2,-0.1 h 0.1 c 10e-4,0 0.101,0 0.101,0.1 z"
             id="path156" />
          <path
             fill="#666666"
             d="m 529.6,549 v -0.1 c 0,-0.101 -0.1,-0.101 -0.1,-0.101 0,0 -0.1,0 -0.2,0 v 0 c -0.1,0 -0.1,0 -0.2,0 0,0 0,0 0,0.101 v 0 0 -0.1 H 529 v 1.2 h 0.1 v -0.5 c 0,0.101 0,0.101 0.101,0.101 h 0.1 c 0.101,0 0.101,0 0.101,0 0.1,0 0.1,0 0.1,0 h 0.1 c 0,-0.101 0,-0.101 0,-0.101 0,-0.1 0,-0.1 0,-0.1 0.101,-0.101 0.101,-0.101 0.101,-0.2 0,-0.099 -0.003,-0.099 -0.103,-0.2 z m -0.3,-0.1 c 0.101,0 0.101,0 0.101,0 0.1,0 0.1,0 0.1,0.1 0,0 0,0 0.1,0.101 v 0.1 c 0,0.1 0,0.1 0,0.2 -0.1,0 -0.1,0 -0.1,0.1 h -0.1 -0.101 -0.1 c -0.101,0 -0.101,0 -0.101,-0.1 V 549 v 0 -0.1 c 0.101,0 0.101,0 0.101,0 0.1,0 0.1,0 0.1,0 z"
             id="path158" />
        </g>
        <path
           style="fill:#ffffff;stroke:none;stroke-width:1.42857"
           d="m 252.97143,194.86335 c -1.00781,-1.21433 -2.65264,-1.89311 -3.65518,-1.50839 -2.87315,1.10253 -9.14801,-4.67861 -9.14801,-8.42824 0,-3.05841 -3.25709,-7.8555 -5.33367,-7.8555 -0.46414,0 -3.61542,1.62423 -7.00285,3.6094 -6.09085,3.56947 -6.18956,3.57881 -8.92435,0.84402 -1.52096,-1.52096 -2.98447,-3.87986 -3.25226,-5.242 -0.80293,-4.08433 -5.08082,-5.99902 -7.23416,-3.23785 -2.80024,3.59069 -21.53046,5.60583 -24.50035,2.63594 -0.80665,-0.80666 -3.06029,-1.46665 -5.00808,-1.46665 -1.94779,0 -5.68629,-0.7756 -8.30779,-1.72354 -4.0668,-1.47058 -5.40666,-1.34531 -9.1289,0.85347 -2.3994,1.41736 -4.55239,2.35367 -4.78442,2.08069 -0.81862,-0.96311 -3.66603,-6.74636 -3.66603,-7.44592 0,-0.38986 1.44643,-0.91427 3.21429,-1.16534 2.11043,-0.29973 3.37706,-1.60615 3.68826,-3.80414 0.38556,-2.72318 -0.0305,-3.18753 -2.23032,-2.48933 -3.56662,1.132 -7.70913,-6.91691 -5.97396,-11.60739 0.64267,-1.73726 0.98517,-8.3451 0.76111,-14.68409 -0.37674,-10.65838 -0.73809,-11.87161 -4.80325,-16.12707 -4.61695,-4.83306 -8.26289,-14.684 -5.9612,-16.10652 0.72355,-0.44719 0.96328,-2.220097 0.53271,-3.939802 -0.7581,-3.027933 -0.39714,-3.130083 11.42333,-3.232655 12.95839,-0.112443 13.45647,0.202818 10.90842,6.904697 -1.03002,2.70915 -0.44003,4.79141 2.85977,10.093 4.52671,7.27282 4.58763,7.31173 8.31949,5.31449 1.70959,-0.91494 4.85874,-0.71421 9.54894,0.60866 22.78562,6.42667 34.13918,7.16514 40.28632,2.62037 2.32139,-1.71628 6.34462,-3.67087 8.94052,-4.34354 6.5279,-1.69154 6.86479,-4.30178 0.70438,-5.45748 -2.80913,-0.52699 -5.43386,-1.48621 -5.83273,-2.1316 -0.39887,-0.64538 0.678,-4.06168 2.39305,-7.59176 2.69849,-5.554303 4.38482,-6.988557 12.52671,-10.654186 5.17465,-2.32972 13.96397,-5.312593 19.53184,-6.628608 5.56786,-1.316015 12.91538,-4.241124 16.32781,-6.500244 l 6.20441,-4.10749 6.78319,5.679216 c 6.82567,5.714771 9.96487,12.478277 7.42701,16.001765 -1.4404,1.999825 -1.26503,21.868577 0.23474,26.593937 0.64689,2.03814 0.25272,4.06338 -1.08854,5.59278 -1.15646,1.3187 -2.53807,3.82717 -3.07026,5.57439 -0.53218,1.74723 -2.69751,4.02526 -4.81182,5.06229 -2.98386,1.46354 -3.77733,2.79972 -3.54536,5.97027 0.16437,2.24661 -0.96063,5.85353 -2.5,8.01538 -1.53937,2.16186 -2.79886,4.71909 -2.79886,5.68274 0,1.19616 -1.5475,1.50098 -4.87707,0.96067 -3.0709,-0.49834 -5.84844,-0.0553 -7.5,1.19622 -1.44261,1.09321 -3.96972,2.0081 -5.6158,2.03309 -3.40661,0.0517 -7.72141,4.20732 -7.72141,7.43651 0,1.19136 1.28571,3.32966 2.85714,4.75178 4.50164,4.07393 3.79799,10.97107 -1.43462,14.06204 -3.4773,2.05409 -4.12567,3.19697 -3.41656,6.0223 1.00825,4.0172 0.26369,4.42326 -2.34563,1.27922 z"
           id="region_normandie"
           transform="translate(5.5570705e-6)" />
        <path
           style="fill:#ffffff;stroke:none;stroke-width:1.42857"
           d="m 374.06516,146.96722 c -2.92902,-2.41436 -5.32549,-5.60602 -5.32549,-7.0926 0,-4.208 -4.92952,-6.14112 -10.75631,-4.2181 -2.69617,0.88981 -5.58571,1.19536 -6.4212,0.679 -0.83549,-0.51636 -2.43067,-0.18229 -3.54485,0.74239 -1.59431,1.32316 -3.78689,0.84169 -10.29456,-2.26062 -6.91655,-3.29722 -10.25459,-3.96089 -20.41165,-4.05825 -11.75409,-0.11266 -13.3438,-0.75739 -11.79829,-4.78491 0.3823,-0.99625 0.0171,-3.56768 -0.81152,-5.71428 -1.87849,-4.8663 -1.85042,-23.298383 0.039,-25.633342 0.92322,-1.140894 0.8304,-3.457138 -0.27244,-6.798771 -1.77983,-5.39296 -2.28588,-6.029817 -10.5409,-13.265489 -5.27261,-4.621543 -5.2905,-4.67477 -2.74724,-8.175877 1.40796,-1.938227 3.30065,-3.264197 4.20598,-2.946601 2.87587,1.00888 3.30533,-0.890157 1.14574,-5.066355 -1.93691,-3.745572 -1.87897,-4.16507 0.77126,-5.583427 2.65447,-1.420631 2.70336,-1.781061 0.66379,-4.893835 -1.99526,-3.045155 -1.98196,-3.580026 0.14187,-5.70385 1.79854,-1.798543 1.96318,-2.801965 0.7079,-4.314482 -0.99401,-1.197711 -1.46998,-6.033018 -1.21329,-12.325583 0.41751,-10.235164 0.48011,-10.384444 5.42239,-12.93169 2.75,-1.417346 11.09168,-4.2025574 18.53707,-6.189358 15.62044,-4.168311 17.79344,-3.4372297 17.44359,5.868689 -0.17341,4.612719 0.64406,6.138202 5.78008,10.786232 6.78686,6.14203 6.61803,6.085442 10.4214,3.492899 4.19821,-2.861689 8.97215,-3.712669 10.43621,-1.860312 0.71215,0.90103 1.70825,3.937265 2.21355,6.747189 1.21573,6.76055 3.8577,10.140096 8.30901,10.628727 5.93687,0.651703 9.28437,3.174409 10.18451,7.675147 0.83372,4.168576 0.96267,4.222086 9.08678,3.77062 7.0961,-0.394337 8.543,-0.03201 10.41443,2.607866 2.94614,4.155924 4.14293,14.126456 2.22159,18.508194 -0.86165,1.965043 -0.39726,2.777777 1.93582,3.387892 2.69321,0.704288 3.00134,1.613104 2.51395,7.414778 -0.39675,4.722782 -1.62897,7.708616 -4.31244,10.449574 -3.14693,3.214353 -3.75698,5.128065 -3.75698,11.785715 0,7.71714 -0.11423,7.9484 -3.92857,7.95359 -4.97133,0.007 -13.21428,4.95013 -13.21428,7.92472 0,1.24177 0.70922,3.58298 1.57606,5.20267 1.52297,2.84571 0.64653,4.34978 -3.36425,5.77344 -0.59064,0.20965 -0.48103,2.44838 0.24358,4.97495 1.07168,3.73675 0.78629,5.26904 -1.52979,8.21346 -1.56599,1.99083 -3.29699,3.6197 -3.84666,3.6197 -0.54966,0 -3.39586,-1.97537 -6.32488,-4.38971 z"
           id="region_hauts_de_france"
           transform="translate(5.5570705e-6)" />
        <path
           style="fill:#ffffff;stroke:none;stroke-width:1.42857"
           d="m 557.3111,242.72521 c 0,-1.61343 -2.12768,-4.49225 -6.07143,-8.21486 -1.375,-1.2979 -2.5,-4.10174 -2.5,-6.23077 0,-2.64219 -1.31705,-4.80877 -4.1491,-6.82537 -2.282,-1.62493 -4.63205,-2.95442 -5.2223,-2.95442 -0.59026,0 -3.20297,-1.62446 -5.80603,-3.60991 -3.45043,-2.63176 -5.71773,-3.3627 -8.36769,-2.69762 -2.06724,0.51885 -4.52143,0.1765 -5.69059,-0.79383 -1.13067,-0.93837 -3.34019,-1.29845 -4.91006,-0.8002 -1.57876,0.50108 -4.85947,-0.131 -7.34132,-1.41441 -4.32677,-2.23746 -4.68647,-2.18835 -10.0714,1.37523 -3.0714,2.03256 -5.58437,4.65073 -5.58437,5.81816 0,1.16741 -1.21694,2.12258 -2.7043,2.12258 -3.09343,0 -4.43856,2.6622 -4.43856,8.78454 0,3.57859 -0.44841,4.12282 -2.78574,3.38098 -3.02399,-0.95978 -10.90306,2.47231 -11.79099,5.13611 -0.38735,1.16203 -1.87769,0.96043 -5.05812,-0.68423 -2.47994,-1.28243 -5.7479,-2.33168 -7.26214,-2.33168 -3.73611,0 -6.92304,-3.89426 -4.86838,-5.94892 2.06738,-2.06737 0.73978,-5.34526 -4.16846,-10.29203 -2.23639,-2.25394 -4.06617,-4.61357 -4.06617,-5.24363 0,-2.91651 -8.81524,-2.93798 -14.80979,-0.036 -3.57727,1.73173 -10.38232,3.32065 -16.09114,3.75715 l -9.89237,0.75628 -3.12407,-6.43027 c -1.71824,-3.53664 -4.75403,-7.49826 -6.7462,-8.80358 -1.99218,-1.30533 -3.62214,-3.32795 -3.62214,-4.49473 0,-1.16678 -2.25,-4.37142 -5,-7.12142 -5.8415,-5.84149 -6.09405,-7.63592 -1.87738,-13.33926 l 3.12261,-4.22356 -3.21395,-5.71846 -3.21395,-5.71846 6.08351,-8.67264 c 3.37989,-4.81836 5.48385,-9.10388 4.7342,-9.64299 -2.24786,-1.61651 -1.51506,-5.18845 1.29998,-6.33668 1.85418,-0.7563 2.32949,-1.82819 1.58368,-3.57143 -2.77817,-6.49362 -2.39349,-9.75111 1.35311,-11.45817 2.02625,-0.92323 5.61616,-1.29218 7.97757,-0.8199 l 4.29348,0.8587 v -8.66184 c 0,-7.62915 0.51095,-9.22125 4.28571,-13.354083 3.63179,-3.976299 4.28571,-5.846696 4.28571,-12.258243 0,-7.405806 0.0775,-7.54654 3.6599,-6.647413 5.75557,1.444557 14.90429,-3.327915 15.89728,-8.292896 1.19908,-5.99539 2.68822,-5.983083 2.92997,0.02421 0.11646,2.893926 0.63352,8.315255 1.14901,12.047398 0.83423,6.03985 1.33059,6.785715 4.51576,6.785715 1.96817,0 5.48848,1.607142 7.8229,3.571428 2.33442,1.964286 5.48079,3.571429 6.99193,3.571429 1.51115,0 2.74754,0.964285 2.74754,2.142857 0,1.178568 0.8611,2.142848 1.91355,2.142848 1.05245,0 2.64581,1.60715 3.5408,3.57143 1.20269,2.63961 2.73143,3.57143 5.85928,3.57143 2.32762,0 4.62934,-0.64286 5.11494,-1.42857 1.39758,-2.26133 5.95825,-1.67322 11.0369,1.42324 5.56651,3.3939 9.32796,3.62152 12.49423,0.7561 1.88036,-1.7017 3.4115,-1.8104 7.96963,-0.56576 6.7474,1.84244 9.20822,3.6491 9.22893,6.77564 0.0193,2.92147 10.92377,14.46792 13.66344,14.46792 1.1195,0 2.03544,-0.96428 2.03544,-2.14284 0,-2.87176 3.81272,-2.73438 5.4529,0.19648 1.68846,3.01708 12.61279,3.4596 17.11093,0.69311 2.9916,-1.83992 3.62274,-1.68595 7.22103,1.76142 2.7897,2.6727 5.46633,3.77755 9.15157,3.77755 4.84604,0 19.635,2.61857 19.635,3.47663 0,2.90509 -4.57611,11.74012 -9.29821,17.95194 -5.0561,6.65117 -6.11402,9.23596 -6.89256,16.8404 -0.50584,4.94079 -2.30001,12.19185 -3.98704,16.11347 -2.35689,5.47873 -2.87293,8.77169 -2.228,14.21718 0.46164,3.89784 0.18791,10.78963 -0.60827,15.31511 -0.90119,5.12224 -0.95126,9.56798 -0.13258,11.77767 1.80222,4.86494 -4.26028,14.3076 -9.18604,14.3076 -1.85987,0 -3.38158,-0.66999 -3.38158,-1.48886 z"
           id="region_grand_est"
           transform="translate(5.5570705e-6)" />
        <path
           style="fill:#ffffff;stroke:none;stroke-width:1.42857"
           d="m 341.23967,203.10436 c -1.375,-0.29059 -2.52312,-1.60621 -2.55138,-2.9236 -0.14921,-6.95665 -12.69177,-13.56069 -18.6673,-9.82891 -3.6387,2.27241 -6.54758,0.26978 -7.57677,-5.21627 -0.70062,-3.73464 -1.75324,-5.13624 -4.10895,-5.47119 -1.95397,-0.27783 -3.33297,-1.61347 -3.60027,-3.48706 -0.23828,-1.67022 -2.00614,-4.51442 -3.92857,-6.32045 -2.51924,-2.3667 -3.49533,-4.80027 -3.49533,-8.71444 0,-2.9869 -1.28332,-7.53556 -2.85181,-10.10812 -3.77945,-6.19888 -3.60561,-9.46556 0.58858,-11.06019 1.89808,-0.72165 3.66593,-2.38148 3.92857,-3.6885 0.39002,-1.94097 2.30984,-2.38159 10.47751,-2.40468 14.7015,-0.0416 20.80121,0.99701 26.7763,4.55905 4.56079,2.71891 6.55789,3.04748 13.57143,2.23282 14.65202,-1.70191 15.39914,-1.6575 14.98137,0.89067 -0.36961,2.25443 3.68786,6.41533 11.15851,11.44294 2.69748,1.81536 3.12622,2.76498 1.84794,4.09302 -1.27142,1.32092 -0.99611,3.28844 1.16593,8.33226 2.79092,6.51096 2.79208,6.63403 0.0831,8.82765 -1.97424,1.59865 -2.56573,3.46188 -2.102,6.62146 0.62709,4.27264 0.45476,4.4254 -6.10126,5.40853 -9.36935,1.40502 -10.66246,2.07916 -10.69876,5.57757 -0.0175,1.68379 -1.14247,4.421 -2.5,6.08268 -2.5469,3.11752 -11.98979,6.08614 -16.39681,5.15476 z"
           id="region_ile_de_france"
           transform="translate(5.5570705e-6)" />
        <path
           style="fill:#ffffff;stroke:none;stroke-width:1.42857"
           d="m 407.66824,336.11633 c -2.45097,-0.97695 -2.24104,-4.03167 0.42938,-6.24792 1.43279,-1.18911 2.06344,-3.64659 1.78571,-6.9584 -0.36384,-4.33858 -1.24334,-5.50193 -5.7624,-7.62215 -3.85762,-1.8099 -6.33439,-4.47825 -8.95263,-9.64509 -1.99079,-3.92864 -4.15201,-7.14298 -4.80272,-7.14298 -0.6507,0 -2.34459,1.28345 -3.7642,2.8521 -1.84377,2.03733 -3.08571,2.43332 -4.34747,1.38616 -1.00462,-0.83377 -4.23989,-1.07041 -7.5022,-0.54874 -5.09844,0.81527 -6.00532,0.50594 -8.16069,-2.78357 -1.94184,-2.96363 -2.22596,-5.4143 -1.4264,-12.30336 0.68495,-5.90155 0.50585,-8.60259 -0.5704,-8.60259 -0.86286,0 -1.56884,-1.61415 -1.56884,-3.587 0,-1.97285 -1.22796,-6.31213 -2.7288,-9.64285 -3.57868,-7.94195 -4.82639,-19.62729 -2.09572,-19.62729 2.33321,0 2.54321,-4.01374 0.49223,-9.40821 -1.20503,-3.16948 -0.97674,-4.42902 1.24675,-6.87872 1.49703,-1.64933 2.46087,-3.70587 2.14185,-4.57009 -0.31902,-0.86422 0.40566,-2.38936 1.6104,-3.38921 3.52868,-2.92855 2.75577,-11.43592 -1.43653,-15.81174 -3.20851,-3.34896 -3.37333,-3.99622 -1.42857,-5.61023 1.20912,-1.00348 2.19839,-3.28415 2.19839,-5.06817 0,-3.72108 1.54216,-4.51556 11.26993,-5.806 6.57795,-0.87259 7.18498,-0.67886 9.66025,3.083 1.45269,2.20775 3.29931,5.97857 4.10361,8.37959 0.88404,2.63905 2.32099,4.22628 3.6335,4.01349 1.36808,-0.22181 3.54542,2.45012 5.88669,7.22388 l 3.71557,7.57589 9.25554,-0.33434 c 10.78937,-0.38974 20.04022,-2.60837 22.31757,-5.35241 1.62268,-1.95521 8.72877,-1.53047 8.72877,0.52173 0,0.60088 2.02669,3.07398 4.50376,5.49578 3.77495,3.69071 4.20996,4.75728 2.68816,6.59093 -2.97326,3.58256 1.40881,8.75591 8.35793,9.86712 3.15895,0.50514 6.3325,1.97083 7.05234,3.25711 1.69093,3.02153 7.63495,1.6657 11.66587,-2.66098 1.60521,-1.72299 4.67657,-3.16164 6.82525,-3.197 3.47877,-0.0572 3.95571,-0.65871 4.35423,-5.49115 0.3374,-4.0914 1.24272,-5.7292 3.6789,-6.65543 1.77726,-0.67571 4.29088,-2.84558 5.58583,-4.82193 2.92927,-4.47062 7.55992,-6.07394 10.49859,-3.63506 1.21914,1.0118 4.15674,1.69179 6.52801,1.51111 2.37129,-0.18069 5.17377,0.38717 6.22776,1.2619 1.07403,0.89137 3.72576,1.19302 6.03294,0.68627 2.90369,-0.63776 4.68614,-0.21789 6.04964,1.42503 1.06319,1.28105 4.70133,3.63043 8.08478,5.22084 5.70002,2.67932 6.15172,3.29968 6.15172,8.44861 0,3.98714 0.60535,5.55696 2.14286,5.55696 2.97997,0 2.74234,0.60931 -2.14286,5.49451 -4.36175,4.36175 -5.42991,7.91543 -2.85714,9.50549 3.92669,2.42682 1.02704,8.01898 -10,19.28571 -9.93067,10.14653 -11.42857,12.33925 -11.42857,16.72983 0,4.17364 -1.08354,6.0066 -6.2273,10.53432 -4.56647,4.01956 -6.72386,7.30613 -8.08914,12.32296 -3.41223,12.53844 -10.75846,19.87005 -15.55774,15.52676 -3.2748,-2.96365 -6.78091,-2.8639 -8.5505,0.24328 -1.27456,2.23795 -1.84352,1.99032 -5.42813,-2.36253 -8.08084,-9.81269 -9.6689,-10.76746 -18.13903,-10.90545 l -7.95976,-0.12969 -2.23327,7.94883 c -3.57942,12.74018 -3.24082,12.22427 -6.24103,9.50911 -3.75127,-3.39486 -14.28149,-2.55908 -16.42255,1.30344 -0.86907,1.56782 -1.71139,3.08897 -1.87182,3.38036 -0.47643,0.86533 -15.26919,1.43113 -17.2083,0.65818 z"
           id="region_bourgogne_franche_compte"
           transform="translate(5.5570705e-6)" />
        <path
           style="fill:#ffffff;stroke:none;stroke-width:1.42857"
           d="m 276.12956,323.17436 c 0.54107,-2.22558 -5.31414,-10.37107 -7.46132,-10.37983 -3.37602,-0.0143 -5.64286,-3.00025 -5.64286,-7.4343 0,-2.28961 -2.1356,-6.96928 -5,-10.95632 -2.75,-3.8278 -5,-7.92986 -5,-9.1157 0,-3.01977 -8.43884,-6.45728 -9.92981,-4.04485 -0.60197,0.97401 -2.95331,1.55874 -5.2252,1.2994 -3.01594,-0.34429 -4.2539,-1.33899 -4.5872,-3.68583 -0.25108,-1.76785 -1.37608,-3.21428 -2.5,-3.21428 -1.12393,0 -2.0435,-0.92097 -2.0435,-2.04659 0,-1.12562 -1.26316,-2.4475 -2.80703,-2.9375 -2.7717,-0.87971 -2.76842,-0.99328 0.26082,-9.02484 1.68732,-4.47366 3.45972,-10.38393 3.93866,-13.13393 0.75986,-4.36302 1.36361,-4.96574 4.73917,-4.73105 2.17964,0.15154 3.87472,-0.4721 3.88291,-1.42857 0.008,-0.93364 2.57942,-2.77478 5.71428,-4.09143 3.13487,-1.31665 5.69976,-3.33716 5.69976,-4.49002 0,-1.15286 0.87022,-2.43004 1.93383,-2.83818 1.0636,-0.40815 3.63073,-3.63762 5.70472,-7.17662 3.20456,-5.46817 3.6799,-7.68607 3.16506,-14.7679 -0.33321,-4.58335 -1.05944,-10.16788 -1.61386,-12.41005 -0.84259,-3.40764 -0.33814,-4.61083 3.07377,-7.3314 3.54369,-2.82563 4.02396,-4.07734 3.64308,-9.49474 -0.24129,-3.43202 -1.34756,-7.25494 -2.45837,-8.49538 -1.11081,-1.24044 -2.01966,-2.9343 -2.01966,-3.76414 0,-1.58518 12.0336,-6.0302 15.71429,-5.80461 6.15063,0.37697 8.57142,-0.45746 8.57142,-2.9545 0,-1.44965 1.25536,-3.77181 2.78968,-5.16035 3.12348,-2.82671 3.04251,-2.98458 5.09697,9.93894 0.49962,3.14286 2.40272,7.32143 4.22911,9.28572 1.82639,1.96428 3.54769,4.85714 3.82511,6.42857 0.27742,1.57143 1.96547,3.49965 3.75123,4.28493 2.01539,0.88627 3.79404,3.45993 4.68958,6.78572 1.57259,5.84015 2.21136,6.03921 12.76118,3.97668 5.96974,-1.16711 6.64946,-0.98424 9.52336,2.56221 2.78339,3.43476 2.87719,4.06144 0.93223,6.22818 -1.9807,2.20657 -1.71304,2.49348 3.18305,3.412 2.94009,0.55156 8.50086,0.27452 12.35728,-0.61565 6.7718,-1.56312 7.12974,-1.48435 10.46273,2.30229 4.20449,4.77676 4.41168,7.69033 0.78055,10.97645 -1.51844,1.37417 -2.38993,3.46495 -1.93665,4.64618 0.50614,1.319 -0.76832,3.41748 -3.30297,5.43854 -3.83898,3.0611 -3.96828,3.47527 -1.85192,5.93237 3.37297,3.91605 4.22193,7.30366 2.04016,8.14088 -2.48758,0.95458 -2.31001,18.01265 0.21465,20.62028 3.75942,3.88296 7.70076,26.43867 5.17155,29.59598 -1.2119,1.51284 -11.27534,6.6466 -18.02263,9.19403 -3.43411,1.29654 -3.95465,2.19454 -3.57142,6.1612 0.42496,4.39876 0.17694,4.66617 -4.70686,5.0748 -3.75057,0.31381 -5.66549,1.38436 -7.02711,3.92857 -1.52248,2.84479 -2.95929,3.49086 -7.70168,3.46313 -3.20652,-0.0187 -8.33444,-0.61503 -11.39538,-1.32509 -4.0603,-0.94187 -6.37828,-0.7754 -8.57143,0.61557 -3.29519,2.08995 -23.90547,4.3386 -23.47333,2.56103 z"
           id="region_centre_val_de_loire"
           transform="translate(5.5570705e-6)" />
        <path
           style="fill:#ffffff;stroke:none;stroke-width:1.42857"
           d="m 482.69385,474.21408 c -1.19145,-1.90782 -3.33147,-2.85715 -6.44068,-2.85715 -4.02379,0 -4.65636,-0.48887 -4.65636,-3.59864 0,-3.09763 -0.48334,-3.47734 -3.47163,-2.72733 -2.9766,0.74709 -3.36177,0.45117 -2.70111,-2.07517 0.57203,-2.18746 -0.1788,-3.37903 -2.91463,-4.62557 -4.06519,-1.85221 -7.26858,-0.27457 -8.71852,4.2938 -0.64992,2.04771 -2.40401,2.37656 -10.96578,2.05577 -5.60566,-0.21003 -10.51546,-0.70523 -10.91067,-1.10043 -0.39521,-0.39521 -2.53031,0.35166 -4.74466,1.6597 -3.38897,2.00192 -4.56665,2.08899 -7.44187,0.55022 -3.22429,-1.72559 -11.06599,-16.20366 -13.23319,-24.43235 -1.89342,-7.18916 -13.54889,-16.20619 -16.77637,-12.97871 -2.60655,2.60655 -4.56206,1.75142 -6.25571,-2.73557 -1.88287,-4.9883 -4.64883,-5.45692 -8.31271,-1.40838 -1.48557,1.64154 -3.63467,2.5502 -5.0038,2.11566 -1.82287,-0.57856 -3.30422,1.21973 -6.16153,7.4798 -2.06893,4.53282 -3.774,7.10372 -3.78904,5.7131 -0.0421,-3.89088 -6.70056,-13.55859 -10.07614,-14.62995 -4.01619,-1.27469 -8.0967,2.54805 -10.19476,9.55074 -2.13229,7.11696 -4.0028,8.52914 -11.96076,9.03006 l -6.55544,0.41263 0.38974,-4.48898 c 0.21435,-2.46893 -0.86828,-7.00344 -2.40584,-10.07669 -2.08375,-4.16493 -2.34089,-5.74121 -1.00987,-6.19048 0.98215,-0.33151 1.78572,-1.83489 1.78572,-3.34084 0,-1.50596 0.56788,-2.7381 1.26195,-2.7381 1.29805,0 3.29473,-4.77252 3.58603,-8.57143 0.0904,-1.17857 1.76869,-4.56461 3.72959,-7.52454 2.75138,-4.15311 4.3806,-5.29455 7.13671,-5 2.82224,0.30162 3.51033,-0.21767 3.28014,-2.47546 -0.31074,-3.04784 -0.57477,-13.45061 -0.48701,-19.18762 0.0292,-1.91034 -1.00495,-5.08819 -2.29817,-7.06189 -2.28584,-3.48864 -2.22395,-3.69487 2.22282,-7.4072 4.41829,-3.68855 4.53952,-4.08068 3.55822,-11.50954 -1.41572,-10.71758 -4.25749,-16.77446 -9.18584,-19.57848 -7.09017,-4.034 -4.49503,-11.18881 4.33842,-11.96103 4.64828,-0.40635 5.03105,-0.81168 5.44146,-5.76216 0.40072,-4.83351 0.96273,-5.48123 6.0884,-7.01692 3.1058,-0.93052 6.36086,-2.5521 7.23345,-3.60351 2.33499,-2.81349 4.61109,-2.35156 8.42697,1.71026 2.75319,2.93064 4.57636,3.56115 9.55258,3.30356 3.38248,-0.17509 6.90887,0.44055 7.83641,1.36809 1.29621,1.29621 2.4255,0.99213 4.88036,-1.31409 l 3.19392,-3.00053 3.69729,7.29624 c 2.03351,4.01294 4.57952,7.29625 5.65782,7.29625 1.07829,0 3.41793,1.18013 5.1992,2.62252 l 3.23868,2.62252 -3.36305,5.98374 -3.36305,5.98373 3.01605,3.01605 c 5.65547,5.65547 24.69208,3.95155 24.69208,-2.21012 0,-3.48649 11.32877,-2.02486 14.48132,1.86837 1.50313,1.8563 3.19904,2.92872 3.76868,2.38316 0.56964,-0.54555 2.33483,-5.61876 3.92264,-11.2738 l 2.88693,-10.28188 6.6816,-0.36727 c 5.77376,-0.31736 7.03138,0.1321 9.25593,3.30795 1.41588,2.02137 4.30257,5.66154 6.41485,8.08925 3.79599,4.36282 3.88478,4.38505 7.65273,1.9162 2.7579,-1.80706 4.24403,-2.06598 5.37375,-0.93627 3.22275,3.22275 9.30032,1.68894 14.4928,-3.65758 4.9501,-5.09695 5.06877,-5.13605 5.06877,-1.66997 0,2.3237 -1.23316,4.20914 -3.57143,5.46054 -2.5184,1.34781 -3.57143,3.10383 -3.57143,5.95569 0,3.61997 0.49281,4.04431 4.69681,4.04431 6.25395,0 15.34062,-7.22655 12.85403,-10.22269 -2.08094,-2.50738 -0.2101,-5.87418 2.65352,-4.77531 1.16533,0.44718 3.30284,-0.49533 4.75004,-2.09447 1.79051,-1.9785 4.41334,-2.90753 8.20846,-2.90753 3.06745,0 5.23841,0.54815 4.82435,1.21811 -0.41405,0.66997 0.14115,2.43782 1.23389,3.92858 1.15451,1.57509 1.65869,4.35732 1.20363,6.64203 -0.63556,3.19094 0.32716,5.13604 5.11038,10.32523 3.2414,3.5165 5.89346,6.92476 5.89346,7.5739 0,0.64913 -2.27501,3.38527 -5.05557,6.08031 -6.06623,5.87961 -5.97477,9.38951 0.35553,13.6447 2.52211,1.69536 4.23788,3.43025 3.81283,3.85531 -1.15282,1.15282 2.23365,7.04963 5.91705,10.30326 2.58746,2.28557 3.0936,3.90729 2.53006,8.1065 -0.67747,5.04824 -1.15998,5.44504 -12.59423,10.35714 -6.53937,2.80928 -12.86533,5.10779 -14.0577,5.10779 -1.19235,0 -2.56377,0.6405 -3.04758,1.42333 -0.55059,0.89085 -2.54755,0.56085 -5.33792,-0.88211 -4.17414,-2.15853 -4.57904,-2.14022 -6.35418,0.28745 -2.26826,3.10201 -1.22492,7.57254 2.52728,10.82889 3.47743,3.0179 3.50237,5.4853 0.0555,5.4853 -4.03027,0 -14.29124,3.90754 -16.76998,6.38628 -1.20183,1.20183 -3.0588,2.18515 -4.1266,2.18515 -1.0678,0 -2.14689,1.44642 -2.39796,3.21428 -0.29193,2.05552 -1.60491,3.3775 -3.64208,3.66703 -2.31055,0.32837 -3.64799,1.99611 -4.86899,6.07143 -0.92586,3.09027 -2.40731,5.61868 -3.29211,5.61868 -2.10729,0 -6.31336,7.35416 -5.49782,9.61272 0.34866,0.96556 3.1563,3.17323 6.23922,4.90591 5.5176,3.10106 7.5104,6.90995 3.61527,6.90995 -1.09452,0 -2.36005,0.96428 -2.81232,2.14285 -1.13983,2.97037 -3.41135,2.67692 -5.5292,-0.71428 z"
           id="region_auvergne_rhone_alpes"
           transform="translate(5.5570705e-6)" />
        <path
           style="fill:#ffffff;stroke:none;stroke-width:1.42857"
           d="m 505.88252,547.4755 c 0,-1.77131 -8.34918,-6.42454 -9.8562,-5.49315 -0.70341,0.43473 -3.30462,0.38528 -5.78048,-0.1099 -3.36498,-0.67299 -5.21427,-2.29736 -7.32438,-6.43351 -2.72896,-5.3492 -3.02359,-5.50873 -8.85946,-4.79725 -3.32014,0.40479 -5.07233,0.33593 -3.89376,-0.15301 2.40699,-0.99856 5.71428,-4.78819 5.71428,-6.54765 0,-0.63554 -1.21693,-1.15552 -2.7043,-1.15552 -1.48736,0 -3.09163,-1.00938 -3.56504,-2.24306 -1.16809,-3.04398 -7.13591,-2.04673 -7.77393,1.29907 -0.27556,1.4451 0.95493,4.17724 2.73443,6.07143 1.7795,1.89419 2.58017,3.44398 1.77928,3.44398 -0.8009,0 -2.61974,-1.28571 -4.04186,-2.85714 -3.2605,-3.60281 -7.40361,-3.67948 -8.52138,-0.1577 -1.35629,4.2733 -7.42578,4.67665 -10.05233,0.66802 -1.82559,-2.7862 -3.42596,-3.36746 -9.27154,-3.36746 -5.53973,0 -6.89582,-0.44109 -6.2811,-2.04304 0.43119,-1.12366 2.70924,-2.71418 5.06232,-3.53446 2.4466,-0.85289 3.87398,-2.14568 3.33391,-3.01955 -1.28668,-2.08188 1.92481,-5.68867 5.06518,-5.68867 1.90142,0 2.80831,-1.55602 3.53858,-6.07142 0.67699,-4.18594 2.57705,-7.73147 6.11835,-11.41687 l 5.13642,-5.34543 -3.67122,-3.94028 c -2.01917,-2.16716 -3.99039,-5.54742 -4.3805,-7.51171 -0.3901,-1.96429 -1.18215,-4.69643 -1.76011,-6.07143 -1.36665,-3.25133 1.70163,-3.31418 5.24503,-0.10746 2.38612,2.15941 3.09311,2.18587 7.25535,0.27156 5.27648,-2.42677 9.61161,-1.9703 9.61161,1.01208 0,1.31687 1.53247,2.03811 4.33055,2.03811 2.43749,0 4.67326,0.89309 5.11453,2.04303 0.43119,1.12367 2.62149,2.68359 4.86733,3.4665 3.19425,1.11352 4.47851,0.94732 5.89819,-0.76329 0.99816,-1.20271 3.28768,-2.74672 5.08783,-3.43114 5.54111,-2.10672 4.34536,-7.85281 -2.34436,-11.26565 -3.08955,-1.57617 -5.93999,-3.38779 -6.33431,-4.02582 -1.24016,-2.00661 1.56373,-5.04961 3.8459,-4.17386 2.89907,1.11248 5.70433,-2.44918 4.61997,-5.86568 -1.32789,-4.1838 0.56819,-7.41266 4.35292,-7.41266 2.69411,0 3.41859,-0.75687 3.41859,-3.57143 0,-2.14286 0.81633,-3.57143 2.04082,-3.57143 1.12245,0 3.02413,-0.98332 4.22596,-2.18515 3.09212,-3.09212 12.9493,-6.32379 16.47581,-5.40159 2.58723,0.67657 2.9717,0.13733 2.9717,-4.16809 0,-3.13093 -1.04822,-5.89383 -2.85715,-7.53089 -4.45663,-4.0332 -3.75219,-6.59196 1.32732,-4.82123 2.96393,1.03323 5.07598,0.98158 7.24095,-0.17707 2.60737,-1.39542 3.56686,-1.08508 6.52983,2.112 1.91033,2.06129 3.47333,4.6323 3.47333,5.71336 0,2.82003 6.94538,7.88723 10.81067,7.88723 3.42266,0 6.37827,5.27043 3.90538,6.96407 -0.71719,0.49119 -2.68238,3.7232 -4.36708,7.18224 -2.68395,5.51068 -2.81627,6.64157 -1.06899,9.13617 1.09677,1.56585 1.6795,4.52144 1.29496,6.56798 -0.84445,4.49416 6.42973,13.00668 11.11456,13.00668 1.6353,0 5.21336,1.38446 7.95126,3.07657 4.76526,2.94509 5.27391,2.98194 11.90224,0.86229 5.88169,-1.88089 7.17132,-1.91659 8.56517,-0.2371 1.28007,1.5424 0.66323,3.50079 -2.80505,8.90564 -2.44529,3.81065 -4.44598,8.55046 -4.44598,10.53292 0,2.94547 -1.56711,4.43973 -8.57142,8.17299 -4.71429,2.51269 -8.57143,5.4786 -8.57143,6.59092 0,1.11232 -1.88302,2.99614 -4.18448,4.18628 -2.30146,1.19013 -4.61282,3.51347 -5.13635,5.16298 -0.52353,1.6495 -2.72587,3.74584 -4.89408,4.65852 -2.16821,0.91268 -5.76616,3.82767 -7.99544,6.47776 -3.52695,4.19271 -3.76943,5.02741 -1.86749,6.42857 2.27342,1.67482 1.96525,5.81044 -0.32739,4.39352 -0.71722,-0.44327 -2.73393,0.19558 -4.48156,1.41967 -1.74763,1.22409 -4.32019,2.22562 -5.71679,2.22562 -1.39661,0 -2.53928,0.64285 -2.53928,1.42857 0,0.78571 -1.92857,1.42857 -4.28571,1.42857 -2.35715,0 -4.28572,0.6551 -4.28572,1.45579 0,0.87247 -1.56389,1.06327 -3.90303,0.47619 -4.85904,-1.21954 -6.01146,-1.21005 -10.02554,0.0826 -1.76786,0.56931 -3.21429,0.48752 -3.21429,-0.18173 z"
           id="region_provence_alpes_cote_azur"
           transform="translate(5.5570705e-6)" />
        <path
           style="fill:#ffffff;stroke:none;stroke-width:1.42857"
           d="m 337.5029,602.30232 c -0.87265,-1.05146 -5.18663,-2.71739 -9.58664,-3.70207 -7.48023,-1.674 -8.20666,-1.5962 -11.18038,1.19747 -4.0446,3.7997 -4.63783,3.75077 -5.69714,-0.46984 -0.5933,-2.36387 -2.22394,-3.75547 -5.15487,-4.39922 -3.29523,-0.72375 -4.28706,-1.72614 -4.28706,-4.33267 0,-2.65918 -1.42666,-4.02216 -6.61017,-6.31507 -3.63559,-1.60819 -8.05688,-2.92399 -9.82508,-2.92399 -1.7682,0 -4.01519,-0.96428 -4.99332,-2.14285 -0.97813,-1.17857 -3.42612,-2.14286 -5.43999,-2.14286 -2.01387,0 -4.98873,-1.1831 -6.6108,-2.62913 -3.38195,-3.01488 -21.19617,-8.07516 -24.2723,-6.89474 -1.1303,0.43374 -2.25929,2.91476 -2.50886,5.51338 -0.29619,3.08408 -1.1308,4.58178 -2.40344,4.31298 -1.07231,-0.22649 -8.99036,-0.60168 -17.59565,-0.83375 l -15.64599,-0.42195 -5.05744,-5.05745 c -4.43139,-4.4314 -4.9313,-5.63173 -4.03847,-9.69677 0.61455,-2.79799 2.09281,-4.92015 3.72453,-5.34686 1.48805,-0.38913 2.70555,-1.77178 2.70555,-3.07255 0,-1.30077 1.97031,-4.75536 4.37847,-7.67687 2.40815,-2.92151 3.97735,-5.96084 3.48711,-6.75406 -0.49024,-0.79323 -0.21054,-1.44223 0.62154,-1.44223 0.83208,0 1.51288,-2.57143 1.51288,-5.71429 0,-3.40136 -0.6746,-5.71428 -1.66667,-5.71428 -0.91666,0 -1.26373,-0.40293 -0.77126,-0.89541 0.49248,-0.49247 -0.0597,-2.74247 -1.22716,-5 -1.46996,-2.8426 -3.20935,-4.10459 -5.65731,-4.10459 -4.10746,0 -4.45931,-2.16468 -1.5022,-9.24203 1.11789,-2.6755 1.70198,-6.12859 1.29797,-7.67354 -0.88122,-3.36976 3.15196,-5.09173 8.67755,-3.7049 2.61784,0.65704 3.92367,0.2875 4.52543,-1.28066 0.4652,-1.2123 1.7569,-1.85456 2.87045,-1.42726 1.11355,0.42731 2.02463,0.13002 2.02463,-0.66064 0,-1.48451 8.56098,-3.00436 20.28134,-3.60059 4.63331,-0.23571 7.75663,-1.32469 10.09207,-3.51872 1.86019,-1.74756 4.18762,-3.17738 5.17207,-3.17738 1.09449,0 1.46246,-1.0317 0.94711,-2.65545 -0.48655,-1.53297 0.0766,-3.41852 1.3323,-4.46063 2.63448,-2.18643 2.83097,-5.27562 0.3894,-6.12195 -0.98215,-0.34044 0.30357,-1.08794 2.85714,-1.66112 4.91392,-1.10299 5.50171,-2.6559 3.24846,-8.58239 -1.25827,-3.30949 -0.63067,-4.43128 6.42857,-11.49052 4.30263,-4.30263 7.82297,-8.26847 7.82297,-8.81296 0,-0.5445 1.04009,-2.13929 2.31132,-3.54398 1.27122,-1.40469 2.73911,-4.64568 3.26198,-7.2022 1.33078,-6.50679 6.58155,-7.77273 11.89984,-2.869 3.41165,3.14571 4.36212,3.3878 7.56722,1.92746 5.40441,-2.46241 9.24535,-2.10132 9.24535,0.86916 0,1.39661 0.98292,3.94259 2.18427,5.65775 1.3229,1.88872 1.8385,4.49609 1.30747,6.61189 -0.5448,2.17066 0.0357,4.88608 1.53319,7.1715 2.06271,3.14809 2.84308,3.44631 5.41557,2.06956 1.65307,-0.8847 5.28378,-1.67572 8.06826,-1.75783 4.71251,-0.13896 5.3591,-0.74213 9.34839,-8.72071 2.38095,-4.76191 5.2381,-8.57143 6.42857,-8.57143 1.22427,0 3.95905,3.82746 6.37964,8.92857 2.33023,4.91071 4.90166,8.9176 5.71429,8.90419 0.81262,-0.0134 3.00337,-3.54912 4.86831,-7.85714 1.86494,-4.30802 4.17603,-7.83277 5.13573,-7.83277 0.95971,0 2.90847,-1.28571 4.3306,-2.85714 3.38246,-3.73757 4.75784,-3.6051 5.80293,0.55889 0.93011,3.70584 8.28225,6.24981 11.1873,3.871 2.5344,-2.0753 10.36824,5.55408 11.5868,11.2844 3.39204,15.9513 18.46791,32.80715 22.91173,25.61689 0.51871,-0.83928 1.92384,-1.14961 3.12252,-0.68964 1.19869,0.45998 2.93558,0.20878 3.85975,-0.55822 2.87933,-2.38963 10.39498,3.29995 11.54687,8.74135 0.55267,2.61072 2.26514,6.12073 3.8055,7.80002 2.79616,3.04835 2.7935,3.0614 -1.65943,8.133 -2.45304,2.79387 -4.83114,7.36633 -5.28466,10.16103 -0.58701,3.61734 -1.55938,5.08128 -3.37505,5.08128 -1.45993,0 -3.36165,1.83252 -4.44753,4.28572 -1.04337,2.35714 -2.4122,4.28571 -3.04183,4.28571 -0.62962,0 -2.82529,1.68052 -4.87926,3.73449 l -3.7345,3.73449 -2.41501,-3.20166 c -2.24707,-2.97901 -2.80246,-3.07636 -7.98629,-1.3999 -6.04928,1.95636 -16.37821,8.96753 -21.89171,14.85987 -1.9254,2.0577 -5.03737,3.70128 -7.00802,3.70128 -5.23914,0 -12.6599,6.36913 -16.69237,14.32681 -3.13206,6.18084 -3.5506,8.83106 -3.5506,22.48285 0,10.13217 0.59194,16.068 1.71429,17.19034 1.33333,1.33333 0.83663,1.71429 -2.23517,1.71429 -5.42045,0 -18.05055,5.6208 -18.05055,8.03305 0,2.51962 -4.87365,2.55832 -6.95105,0.0552 z"
           id="region_occitanie"
           transform="translate(5.5570705e-6)" />
        <path
           style="fill:#ffffff;stroke:none;stroke-width:1.42857"
           d="m 175.49966,562.78551 c -3.70294,-4.32606 -5.93958,-5.71429 -9.20653,-5.71429 -7.02965,0 -18.98203,-5.6146 -18.98203,-8.91676 0,-2.27484 -0.67282,-2.65268 -3.47239,-1.95004 -3.26087,0.81843 -3.39919,0.6163 -2.27073,-3.3184 1.57548,-5.49336 -0.50203,-8.04477 -8.18546,-10.05261 -3.33928,-0.87263 -6.07142,-1.9591 -6.07142,-2.41438 0,-0.45527 2.02136,-3.12997 4.49191,-5.94378 6.73253,-7.66792 8.88615,-13.99419 15.40805,-45.26117 7.76369,-37.22027 7.23822,-35.62492 11.91204,-36.16632 2.55132,-0.29554 3.88583,-1.28468 3.85475,-2.85714 -0.0534,-2.70043 -4.71189,-8.83369 -6.70965,-8.83369 -1.14781,0 2.62389,-36.56596 4.7009,-45.57436 0.77533,-3.36273 0.91716,-3.30787 7.0766,2.73716 3.45698,3.39277 6.68394,7.98315 7.17103,10.20084 2.04857,9.32706 6.95669,5.58823 5.72553,-4.3615 -0.90108,-7.28215 -7.9143,-16.78341 -16.66097,-22.57168 -3.04789,-2.017 -5.54162,-4.29262 -5.54162,-5.05693 0,-0.76431 1.66053,-3.36308 3.69006,-5.77504 2.3764,-2.82419 3.46746,-5.54987 3.06477,-7.65639 -0.34391,-1.79904 0.072,-3.50343 0.92427,-3.78751 1.69502,-0.56501 -2.9966,-12.4403 -4.91483,-12.4403 -2.33819,0 2.25783,-8.44833 5.36659,-9.86478 1.81374,-0.8264 3.29771,-0.94099 3.29771,-0.25464 0,0.68634 2.73214,1.53489 6.07143,1.88566 8.93697,0.93879 20.31324,-5.13177 15.35714,-8.19481 -0.78571,-0.4856 -1.42857,-2.80214 -1.42857,-5.14786 0,-7.73563 -4.68097,-23.34833 -8.30775,-27.70928 l -3.5642,-4.28572 5.49442,-0.45964 c 3.19646,-0.2674 7.21862,-1.91046 9.61701,-3.92857 3.09154,-2.60136 5.81014,-3.46893 10.87013,-3.46893 3.71114,0 7.51045,0.76291 8.4429,1.69536 1.3081,1.30811 2.49887,0.94051 5.21302,-1.6093 3.71886,-3.49368 7.94875,-3.18323 7.94875,0.58339 0,1.20323 0.96429,2.18769 2.14286,2.18769 1.17857,0 2.14286,1.2631 2.14286,2.80688 0,4.06904 5.10337,6.18676 13.06544,5.42171 4.74385,-0.45583 6.93456,-0.13506 6.93456,1.01537 0,0.92493 2.26988,4.84842 5.04417,8.71887 3.17479,4.42917 4.78177,8.0818 4.33612,9.85589 -0.74362,2.96024 4.08042,9.32414 7.06799,9.32414 1.79809,0 4.98029,5.97613 4.98029,9.35293 0,2.03903 2.35496,2.68677 7.69674,2.11702 1.4832,-0.1582 3.21182,0.54578 3.84136,1.5644 0.90599,1.46592 1.70746,1.34267 3.84431,-0.59116 1.59325,-1.44186 5.02486,-2.44319 8.37293,-2.44319 3.12027,0 6.3816,-0.70837 7.24739,-1.57415 1.10978,-1.1098 3.53634,-1.15566 8.22593,-0.15547 3.65847,0.78028 7.84427,1.10684 9.30177,0.7257 5.04963,-1.32051 19.70676,15.06132 17.83646,19.93526 -0.41568,1.08321 -0.15448,3.53464 0.58044,5.44764 1.13776,2.9616 0.58311,4.26235 -3.7346,8.75831 l -5.07079,5.28016 2.67157,4.00556 c 1.89906,2.84731 2.71299,6.79389 2.81482,13.64842 0.13628,9.17504 -0.0176,9.64285 -3.17112,9.64285 -2.04912,0 -3.31435,0.85 -3.31435,2.22663 0,1.22464 -1.82796,4.59964 -4.06215,7.5 -2.23417,2.90036 -4.13054,6.82267 -4.21414,8.71626 -0.0836,1.89359 -0.98778,3.96149 -2.0093,4.59531 -1.0215,0.63385 -1.858,2.29883 -1.8589,3.69998 -0.001,2.01781 -1.63506,2.74882 -7.85714,3.51555 -6.62726,0.81666 -8.31664,0.53745 -10.80473,-1.78571 -5.30486,-4.95322 -14.90793,-2.62426 -14.90793,3.6155 0,1.87636 -1.65321,5.37628 -3.67381,7.77763 -2.0206,2.40134 -3.29697,4.97581 -2.8364,5.72104 0.46058,0.74523 -0.32163,1.72283 -1.73825,2.17244 -1.41661,0.44962 -5.02595,3.74883 -8.02076,7.33159 -4.7192,5.64567 -5.32324,7.16367 -4.531,11.38671 0.82366,4.39046 0.54626,4.96495 -2.80334,5.80565 -2.99212,0.75097 -3.63956,1.67561 -3.31823,4.73894 0.25367,2.4184 -1.14609,5.95804 -3.8395,9.70908 -3.86085,5.37695 -4.93913,5.98292 -12.09585,6.79759 -4.32143,0.49191 -10.58929,0.94537 -13.92857,1.00767 -3.33929,0.0623 -6.07143,0.67527 -6.07143,1.36214 0,0.68688 -1.28572,1.24886 -2.85714,1.24886 -1.57143,0 -2.85715,0.6808 -2.85715,1.51289 0,0.83208 -0.62802,1.12474 -1.39561,0.65034 -0.76758,-0.4744 -3.98187,-0.16613 -7.14285,0.68504 -5.25428,1.41483 -5.74725,1.95676 -5.74725,6.31805 0,2.62375 -0.99263,7.14617 -2.20584,10.0498 -2.9117,6.96867 -1.6459,10.78388 3.57784,10.78388 4.37984,0 6.38669,2.95203 4.99269,7.34412 -0.57691,1.81768 -0.13628,2.65588 1.39618,2.65588 2.88315,0 2.96608,5.57684 0.0963,6.4734 -7.35718,2.29847 -7.01619,1.93803 -4.4823,4.73794 2.1781,2.40678 2.09509,2.8059 -1.23412,5.93352 -1.96311,1.84426 -3.56929,3.88398 -3.56929,4.53273 0,0.64875 -1.28572,2.46527 -2.85715,4.0367 -1.57142,1.57143 -2.85714,4.65714 -2.85714,6.85714 0,5.23337 -2.37338,7.42857 -8.03154,7.42857 -3.60254,0 -5.66603,-1.24196 -9.49418,-5.71428 z"
           id="region_nouvelle_aquitaine"
           transform="translate(5.5570705e-6)" />
        <path
           style="fill:#ffffff;stroke:none;stroke-width:1.42857"
           d="m 151.95395,323.68802 c -2.55357,-0.82134 -4.64285,-2.25501 -4.64285,-3.18593 0,-0.93091 -1.5576,-2.08349 -3.46133,-2.5613 -5.00048,-1.25504 -11.79277,-7.41296 -12.85798,-11.65711 -0.50428,-2.00921 -3.80175,-7.19496 -7.3277,-11.52388 l -6.41083,-7.87077 4.31463,-5.2344 c 5.38226,-6.5296 5.37818,-7.8297 -0.0379,-12.06838 -3.81662,-2.98696 -4.17846,-3.86406 -2.93897,-7.12416 0.77743,-2.0448 2.73605,-4.13757 4.35249,-4.65061 4.82752,-1.5322 3.33468,-3.5974 -2.60039,-3.5974 -3.24874,0 -6.29555,0.91114 -7.36803,2.2034 -1.26867,1.52866 -2.28467,1.74739 -3.31778,0.71429 -0.81901,-0.81902 -2.57748,-1.48912 -3.9077,-1.48912 -3.63868,0 -4.67758,-4.41326 -1.70848,-7.25768 1.4056,-1.34658 6.25207,-3.49672 10.76993,-4.77809 7.11542,-2.0181 8.21428,-2.79546 8.21428,-5.81102 0,-4.49292 3.76141,-6.43893 12.44574,-6.43893 5.11942,0 7.54693,-0.73302 9.33214,-2.818 3.23086,-3.77338 9.03668,-5.06323 13.54479,-3.0092 4.29523,1.95704 5.16477,1.26363 7.4729,-5.95915 1.22247,-3.82545 2.74709,-5.61754 5.33081,-6.26601 3.42894,-0.86061 3.57001,-1.27494 2.69077,-7.90294 -0.51033,-3.84709 -0.49286,-11.79525 0.0388,-17.66256 0.88879,-9.80818 1.22452,-10.66785 4.16616,-10.66785 1.7597,0 3.99974,0.96429 4.97787,2.14286 1.95771,2.35889 8.8253,2.8482 12.59392,0.8973 1.32334,-0.68506 5.78108,-1.55498 9.90608,-1.93316 5.76752,-0.52876 7.5,-0.23068 7.5,1.2904 0,1.08789 0.96429,2.34802 2.14286,2.80028 1.17857,0.45226 2.14286,1.71779 2.14286,2.8123 0,2.86856 4.92919,2.44861 11.67927,-0.99502 6.36219,-3.24575 8.25462,-2.34291 8.29885,3.95919 0.0241,3.43778 6.73186,8.9949 10.95669,9.07723 1.45014,0.0282 4.52004,1.59098 6.82201,3.47273 3.29255,2.6915 3.8367,3.84152 2.5508,5.39093 -1.03301,1.24471 -1.22167,3.51351 -0.5126,6.16483 1.24346,4.64946 -2.35342,12.38863 -7.15001,15.38414 -1.45476,0.90851 -2.64501,2.38755 -2.64501,3.28676 0,2.01806 -6.25305,6.24923 -9.23546,6.24923 -1.20621,0 -2.19312,0.55371 -2.19312,1.23047 0,0.67676 -1.5775,0.92891 -3.50557,0.56033 -2.92566,-0.55927 -3.65262,0.005 -4.3945,3.41239 -2.61957,12.03069 -6.82191,23.71611 -9.75523,27.1263 -3.1074,3.61257 -3.98156,3.83501 -13.81731,3.516 -9.21053,-0.29873 -10.77703,0.0267 -12.75546,2.64953 -1.57119,2.08297 -4.52238,3.25856 -9.72796,3.87509 -4.1099,0.48675 -7.47254,1.48058 -7.47254,2.20851 0,1.93295 2.84219,7.13551 5.69326,10.42138 2.71295,3.12668 7.16389,19.47609 7.16389,26.31476 0,2.7109 -0.97015,4.81821 -2.62619,5.7045 -2.89258,1.54805 -8.96495,0.4983 -10.4858,-1.81273 -0.65151,-0.99002 -2.26915,-0.88032 -4.9359,0.33473 -5.41536,2.46741 -11.75691,2.86145 -17.30926,1.07554 z"
           id="region_pays_de_la_loire"
           transform="translate(5.5570705e-6)" />
        <path
           style="fill:#ffffff;stroke:none;stroke-width:1.42857"
           d="m 106.00515,240.28094 c -1.38439,-1.48199 -3.81956,-1.89705 -8.220053,-1.40105 -5.427888,0.6118 -6.019142,0.42313 -4.481212,-1.42996 1.455144,-1.75334 1.177399,-2.61598 -1.554528,-4.82816 -1.829419,-1.48137 -4.502772,-2.69341 -5.940786,-2.69341 -1.438013,0 -3.018359,-0.65334 -3.511877,-1.45187 -1.29081,-2.08858 -3.8985,-0.07 -2.984967,2.31066 0.523587,1.36445 -0.303363,1.99836 -2.606912,1.99836 -3.485388,0 -6.0313,-3.54647 -3.617043,-5.03856 2.215127,-1.36903 1.560073,-3.91296 -0.776677,-3.01626 -3.058526,1.17366 -6.377916,-0.41494 -5.522868,-2.64316 0.82863,-2.15937 -3.699815,-8.08103 -5.383853,-7.04024 -0.611245,0.37777 -0.761036,1.59977 -0.332869,2.71556 0.428166,1.11578 0.24353,2.86305 -0.410301,3.88282 -0.802132,1.25106 -1.424112,0.2648 -1.912305,-3.03232 -0.724895,-4.89574 -4.294947,-8.05774 -4.294947,-3.80403 0,1.24404 -1.002225,2.2619 -2.227167,2.2619 -1.224941,0 -1.82986,-0.64286 -1.344261,-1.42857 0.485598,-0.78572 -0.11932,-1.42857 -1.344262,-1.42857 -1.224941,0 -2.227167,-0.64286 -2.227167,-1.42857 0,-2.55749 -2.85579,-1.50327 -2.9024,1.07142 -0.03506,1.93643 -0.705629,1.6149 -2.97464,-1.42629 -2.321589,-3.11167 -3.678794,-3.73821 -6.541323,-3.01976 -3.067338,0.76985 -3.485334,0.50026 -2.772257,-1.78799 0.461824,-1.48199 0.238269,-3.65344 -0.496791,-4.82544 -1.716856,-2.73741 -4.620815,-0.15115 -5.142833,4.5802 -0.198127,1.79575 -0.413803,3.74714 -0.47928,4.33643 -0.06548,0.58928 -1.794969,1.07143 -3.843317,1.07143 -2.70593,0 -3.501795,-0.57976 -2.910636,-2.1203 1.32594,-3.45535 -3.683709,-10.45843 -9.070248,-12.67948 l -5.0091321,-2.06543 6.4285711,-0.29068 c 12.257715,-0.55426 12.120149,-0.50465 12.586132,-4.53907 0.343865,-2.97715 -0.45707,-4.32591 -3.571429,-6.01424 -3.659743,-1.98398 -3.737966,-2.18147 -0.884727,-2.23361 1.721487,-0.0315 3.527283,0.58566 4.012881,1.37138 1.15039,1.86137 9.285715,1.86137 9.285715,0 0,-0.78572 -0.89349,-1.42857 -1.985533,-1.42857 -1.092043,0 -3.333372,-2.8674 -4.980727,-6.37201 l -2.995195,-6.372 -5.747147,2.02771 c -7.236117,2.55306 -14.2917115,2.20086 -14.2690525,-0.71228 0.049547,-6.36999 1.7376757,-8.57142 6.572842,-8.57142 2.9688005,0 5.9637795,-1.1304 7.7636005,-2.93022 1.73083,-1.73083 3.960829,-2.60312 5.448095,-2.13108 1.384831,0.43953 5.530518,-0.10753 9.212638,-1.21568 l 6.694764,-2.01483 v 3.52788 c 0,2.98908 0.490918,3.38206 3.214286,2.57309 1.767857,-0.52515 3.909996,-1.82954 4.760309,-2.89866 1.30151,-1.63642 2.000497,-1.62552 4.41961,0.0689 4.445686,3.11388 9.034367,1.22574 9.034367,-3.71744 0,-3.53588 0.556244,-4.12219 3.928571,-4.14097 2.160715,-0.012 4.835336,-0.59589 5.943605,-1.29747 2.399107,-1.51872 7.270681,1.09581 7.270681,3.90211 0,1.24007 0.979703,1.58454 2.833359,0.99621 3.454587,-1.09644 10.023784,4.88846 10.023784,9.13222 0,1.56259 1.167334,3.6811 2.594077,4.7078 1.426743,1.02669 3.031232,3.03738 3.565533,4.46819 0.927043,2.48254 1.157134,2.46926 5.032802,-0.29045 2.23374,-1.59057 4.88653,-3.88623 5.8951,-5.10148 2.29556,-2.76597 3.96097,-2.76259 9.29515,0.0189 2.3319,1.21595 5.5666,1.87781 7.18824,1.4708 1.94575,-0.48835 3.54437,0.21426 4.70086,2.06611 2.67424,4.28213 5.07917,3.48932 4.1103,-1.35501 -0.54952,-2.74762 -0.12491,-4.74813 1.25,-5.8892 1.71268,-1.42141 2.08222,-1.18999 2.08222,1.30397 0,2.63913 0.82932,3.03206 6.39954,3.03206 5.99395,0 6.57861,0.351 9.22486,5.53809 3.50695,6.87417 5.72839,7.79158 10.80418,4.46191 6.84464,-4.49002 7.57941,-2.94462 7.53948,15.85759 -0.0313,14.74831 -0.37647,17.27052 -2.52053,18.41798 -1.36633,0.73124 -3.32621,3.44338 -4.3553,6.02698 -2.45518,6.16397 -2.38724,6.10955 -4.96117,3.97337 -1.81834,-1.50908 -3.26068,-1.50328 -7.91211,0.0318 -3.12863,1.03254 -6.40079,2.73569 -7.27146,3.78479 -0.87067,1.04911 -4.13932,1.90746 -7.26365,1.90746 -8.04616,0 -15.39812,3.76506 -15.39812,7.88563 0,2.57754 -1.29772,3.71654 -6.09797,5.35215 -5.35416,1.82435 -6.33791,1.82092 -8.06512,-0.0281 z"
           id="region_bretagne"
           transform="translate(5.5570705e-6)" />
        <path
           style="fill:#ffffff;stroke:none;stroke-width:1.42857"
           d="m 561.8797,665.15043 c -0.40539,-1.05643 -3.65627,-2.73811 -7.22418,-3.73706 -3.56791,-0.99895 -7.54409,-2.98422 -8.83595,-4.41171 -2.19181,-2.42193 -2.14884,-2.72032 0.64278,-4.46371 4.15873,-2.59717 3.73443,-5.19148 -0.93697,-5.72898 -3.43028,-0.3947 -3.94007,-1.08623 -4.0192,-5.45204 -0.1821,-10.04602 -0.3349,-10.38221 -4.26997,-9.39457 -3.28625,0.8248 -3.4971,0.63634 -2.13518,-1.90842 0.83113,-1.55298 2.15054,-3.21877 2.93203,-3.70175 2.4356,-1.50528 1.59459,-2.82342 -3.57911,-5.60964 -5.84068,-3.14541 -6.11076,-4.44768 -1.86068,-8.97169 l 3.13931,-3.34165 -2.93282,-2.93282 c -2.65146,-2.65145 -2.76025,-3.43614 -1.134,-8.179 0.98936,-2.88539 2.82501,-5.45402 4.07923,-5.70806 1.25421,-0.25404 2.28039,-1.2917 2.28039,-2.30592 0,-1.01421 2.92931,-2.96274 6.50957,-4.33005 3.58027,-1.36732 7.17722,-3.55509 7.99322,-4.86172 1.09685,-1.75633 2.99567,-2.23149 7.2834,-1.82259 l 5.79976,0.5531 -0.85009,-10.13986 c -0.46755,-5.57693 -0.31318,-10.47169 0.34305,-10.87726 1.89639,-1.17204 2.92109,3.09928 2.92109,12.17618 0,5.35625 0.9738,10.37205 2.68149,13.81173 1.47481,2.97063 3.46078,10.96439 4.41326,17.76391 1.61776,11.54883 1.53527,12.80702 -1.25291,19.11017 -2.05162,4.63802 -2.9847,9.71746 -2.9847,16.24793 0,6.60295 -0.73543,10.55052 -2.41133,12.9432 -1.59312,2.2745 -1.86948,3.62328 -0.81444,3.97496 1.10964,0.36988 0.87959,2.46768 -0.75395,6.8752 -2.43168,6.56101 -3.75521,7.72619 -5.0231,4.42212 z"
           id="region_corse"
           transform="translate(5.5570705e-6)" />
      </g>
    </g>
  </g>
</svg>
